<svg xmlns="http://www.w3.org/2000/svg" width="128" height="128" viewBox="0 0 24 24">
  <defs>
    <linearGradient id="grad1" x1="0%" y1="0%" x2="100%" y2="100%">
      <stop offset="0%" style="stop-color:#3366CC;stop-opacity:1" />
      <stop offset="100%" style="stop-color:#6699CC;stop-opacity:1" />
    </linearGradient>
  </defs>
  <circle cx="12" cy="12" r="11" fill="url(#grad1)" />
  <path d="M7,7 L17,7 L17,17 L7,17 Z" fill="none" stroke="white" stroke-width="1.5" />
  <path d="M9,10 L15,10 M9,12 L15,12 M9,14 L13,14" stroke="white" stroke-width="1.5" stroke-linecap="round" />
  <path d="M6,7 C4.8954305,7 4,7.8954305 4,9 L4,15 C4,16.1045695 4.8954305,17 6,17 L7,17 L7,7 L6,7 Z" fill="white" opacity="0.8" />
  <path d="M17,7 L18,7 C19.1045695,7 20,7.8954305 20,9 L20,15 C20,16.1045695 19.1045695,17 18,17 L17,17 L17,7 Z" fill="white" opacity="0.8" />
</svg>