<svg version="1.1" id="Layer_1" xmlns="http://www.w3.org/2000/svg" xmlns:xlink="http://www.w3.org/1999/xlink" x="0px" y="0px"
	 width="100%" viewBox="0 0 802 481" enable-background="new 0 0 802 481" xml:space="preserve">
<path fill="#477ACC" opacity="1.000000" stroke="none" 
	d="
M1.000000,443.000000 
	C1.000000,400.979095 1.000000,358.958221 1.369752,316.438660 
	C4.944468,314.615875 8.319515,313.594666 11.321576,311.909149 
	C19.396746,307.375244 27.358894,302.634003 35.280487,297.834106 
	C46.171417,291.235046 56.873833,284.317902 67.869263,277.900726 
	C74.954308,273.765778 82.433968,270.309570 89.704475,266.487732 
	C91.311073,265.643188 92.787674,264.549011 94.313141,263.552917 
	C103.844650,257.329254 113.364647,251.087952 122.906631,244.880447 
	C126.641380,242.450821 130.138840,239.219742 134.242477,237.884338 
	C142.920670,235.060257 149.574173,229.173645 157.072815,224.550430 
	C168.594574,217.446823 180.227921,210.522751 191.860413,203.600662 
	C202.379105,197.341354 212.966949,191.198380 223.511887,184.983047 
	C235.408188,177.971207 247.324722,170.992493 259.154175,163.869339 
	C261.976990,162.169571 264.312561,159.639664 267.175232,158.030670 
	C278.360870,151.743668 289.669983,145.676407 300.926208,139.514679 
	C301.799011,139.036911 302.632935,138.482849 303.458862,137.925598 
	C308.478241,134.539108 313.495789,131.149750 318.502319,127.744316 
	C321.650604,125.602859 324.644653,123.195374 327.944214,121.323952 
	C334.406830,117.658569 341.201416,114.560913 347.555695,110.726334 
	C357.468140,104.744522 366.997070,98.124619 376.939240,92.195534 
	C384.186157,87.873764 391.854187,84.261353 399.301514,80.271187 
	C403.760803,77.881981 408.269562,75.555267 412.556091,72.880074 
	C420.106659,68.167824 427.468445,63.154133 434.979218,58.376617 
	C439.443054,55.537231 443.996613,52.831039 448.590912,50.206879 
	C452.838318,47.780857 457.325623,45.755222 461.467560,43.169304 
	C466.459198,40.052887 471.195923,36.528473 476.046722,33.186131 
	C479.734039,30.645466 483.279755,27.857759 487.146423,25.627138 
	C497.163513,19.848446 507.407898,14.460608 517.367798,8.588148 
	C519.942871,7.069856 521.804138,4.340938 524.457764,2.097909 
	C585.797852,2.022324 646.673462,2.011019 707.549011,2.018646 
	C715.696167,2.019666 723.843262,2.116405 731.897949,2.485913 
	C731.173401,3.549941 730.665161,4.474833 729.889038,5.014581 
	C725.285583,8.216169 720.830261,11.714195 715.928772,14.385280 
	C707.449341,19.006216 701.050598,27.178988 690.904175,28.974281 
	C689.737183,29.180769 688.755676,30.408817 687.677124,31.147070 
	C685.427307,32.687054 683.222351,34.302673 680.892883,35.711849 
	C679.795044,36.376019 678.266907,36.381413 677.252197,37.121735 
	C672.656433,40.474873 668.439087,44.424538 663.591309,47.336781 
	C655.641113,52.112732 647.228882,56.112080 639.160156,60.700340 
	C631.999390,64.772331 625.008179,69.147423 618.005737,73.491188 
	C614.158997,75.877434 610.552368,78.665237 606.631775,80.913139 
	C603.851990,82.506958 600.580627,83.240204 597.790955,84.820618 
	C593.241638,87.397896 588.960815,90.444122 584.469360,93.129692 
	C575.514404,98.484138 566.461121,103.674133 557.508911,109.033005 
	C548.676025,114.320389 541.629944,122.567543 531.007080,124.929359 
	C529.820190,125.193245 528.832703,126.339203 527.744019,127.063034 
	C525.343567,128.659088 522.971375,130.301529 520.519653,131.814880 
	C519.290283,132.573730 517.793213,132.922546 516.622009,133.747604 
	C511.838135,137.117569 507.354706,140.969894 502.352478,143.962265 
	C492.441528,149.891068 482.294861,155.430984 472.168671,160.991562 
	C469.289307,162.572693 466.144470,163.670441 462.857056,164.768753 
	C440.295074,129.944946 398.478821,119.531540 363.582703,140.606415 
	C341.220551,154.111618 329.895203,174.668793 329.019684,200.809555 
	C328.521973,215.669464 332.882751,229.224045 340.278137,241.853180 
	C326.035980,249.673843 312.135040,257.292694 298.403229,265.205048 
	C294.875763,267.237610 292.123230,271.827759 288.586334,272.351837 
	C283.042511,273.173187 279.063446,275.699280 274.976990,278.882874 
	C272.269440,280.992218 269.320587,282.813324 266.378448,284.596375 
	C254.228714,291.959595 242.147278,299.445923 229.820587,306.502441 
	C223.740311,309.983185 219.079041,315.866577 211.457001,316.940582 
	C209.765778,317.178894 208.470795,320.229401 206.525421,321.989563 
	C194.902374,321.999573 183.746841,321.946808 172.592361,322.031464 
	C165.359970,322.086334 161.125137,326.319885 161.027603,333.513794 
	C160.935074,340.338898 160.991867,347.165985 160.586792,354.003082 
	C155.390289,355.086487 151.498734,357.515198 147.286530,360.174622 
	C141.907639,363.570648 136.527435,367.019318 131.310059,370.712616 
	C130.646896,371.182037 129.784637,371.360596 129.041336,371.727966 
	C122.860291,374.783142 116.430527,377.438934 110.592773,381.050751 
	C106.237915,383.745148 102.717850,387.499023 97.774239,389.716553 
	C90.450729,393.001678 83.242699,396.953949 78.144020,403.623932 
	C77.860367,403.995026 77.333595,404.197021 76.894669,404.430054 
	C71.108383,407.501587 65.291649,410.516754 59.534386,413.641571 
	C52.172897,417.637146 44.868137,421.737091 37.519283,425.756104 
	C34.258224,427.539520 30.044111,428.511383 27.915785,431.173401 
	C25.780109,433.844604 23.693266,435.287933 20.650667,436.493774 
	C16.234234,438.243988 10.770320,439.822052 8.246701,443.288757 
	C4.613529,448.279602 3.280910,446.522003 1.000000,443.000000 
z"/>
<path fill="#4174CC" opacity="1.000000" stroke="none" 
	d="
M523.993286,2.168119 
	C521.804138,4.340938 519.942871,7.069856 517.367798,8.588148 
	C507.407898,14.460608 497.163513,19.848446 487.146423,25.627138 
	C483.279755,27.857759 479.734039,30.645466 476.046722,33.186131 
	C471.195923,36.528473 466.459198,40.052887 461.467560,43.169304 
	C457.325623,45.755222 452.838318,47.780857 448.590912,50.206879 
	C443.996613,52.831039 439.443054,55.537231 434.979218,58.376617 
	C427.468445,63.154133 420.106659,68.167824 412.556091,72.880074 
	C408.269562,75.555267 403.760803,77.881981 399.301514,80.271187 
	C391.854187,84.261353 384.186157,87.873764 376.939240,92.195534 
	C366.997070,98.124619 357.468140,104.744522 347.555695,110.726334 
	C341.201416,114.560913 334.406830,117.658569 327.944214,121.323952 
	C324.644653,123.195374 321.650604,125.602859 318.502319,127.744316 
	C313.495789,131.149750 308.478241,134.539108 303.458862,137.925598 
	C302.632935,138.482849 301.799011,139.036911 300.926208,139.514679 
	C289.669983,145.676407 278.360870,151.743668 267.175232,158.030670 
	C264.312561,159.639664 261.976990,162.169571 259.154175,163.869339 
	C247.324722,170.992493 235.408188,177.971207 223.511887,184.983047 
	C212.966949,191.198380 202.379105,197.341354 191.860413,203.600662 
	C180.227921,210.522751 168.594574,217.446823 157.072815,224.550430 
	C149.574173,229.173645 142.920670,235.060257 134.242477,237.884338 
	C130.138840,239.219742 126.641380,242.450821 122.906631,244.880447 
	C113.364647,251.087952 103.844650,257.329254 94.313141,263.552917 
	C92.787674,264.549011 91.311073,265.643188 89.704475,266.487732 
	C82.433968,270.309570 74.954308,273.765778 67.869263,277.900726 
	C56.873833,284.317902 46.171417,291.235046 35.280487,297.834106 
	C27.358894,302.634003 19.396746,307.375244 11.321576,311.909149 
	C8.319515,313.594666 4.944468,314.615875 1.369752,315.970001 
	C1.000000,284.645782 1.000000,253.291550 1.384560,221.459824 
	C3.330783,220.478668 5.026611,220.215317 6.431539,219.430923 
	C13.605528,215.425629 20.730093,211.329620 27.819458,207.175766 
	C31.777437,204.856644 35.663990,202.411194 39.528271,199.937576 
	C46.069530,195.750351 52.408127,191.219208 59.126682,187.343613 
	C66.523643,183.076675 74.275154,179.427567 81.820076,175.411362 
	C83.418640,174.560425 84.744904,173.213287 86.279633,172.223465 
	C88.612366,170.719009 90.972984,169.246307 93.400604,167.902573 
	C100.289467,164.089462 107.389618,160.626953 114.086082,156.505630 
	C121.688095,151.826996 128.820572,146.389725 136.379471,141.635712 
	C146.018005,135.573776 155.899918,129.899963 165.631989,123.984901 
	C168.589905,122.187103 171.295609,119.963425 174.296509,118.249397 
	C182.419205,113.609955 190.723389,109.284744 198.795425,104.561157 
	C206.903793,99.816292 214.815582,94.735756 222.819855,89.812607 
	C231.497360,84.475357 240.094421,78.999855 248.887436,73.859818 
	C258.508606,68.235664 268.418823,63.104015 278.010895,57.432686 
	C288.827271,51.037468 299.472198,44.347923 310.110657,37.657566 
	C317.934082,32.737526 325.480316,27.363054 333.419800,22.645035 
	C341.313812,17.954018 349.687927,14.067246 357.547638,9.324196 
	C360.178253,7.736689 361.872955,4.598174 364.459900,2.098835 
	C393.016357,2.020902 421.108490,1.988826 449.200531,2.011779 
	C474.131470,2.032149 499.062378,2.113619 523.993286,2.168119 
z"/>
<path fill="#5C8ECC" opacity="1.000000" stroke="none" 
	d="
M557.000000,482.000000 
	C494.645782,482.000000 432.291534,482.000000 369.526245,481.630371 
	C369.745605,480.567169 370.376312,479.270966 371.006409,479.271271 
	C379.205902,479.274902 383.635803,472.104187 390.328583,469.154755 
	C396.525970,466.423706 400.978821,460.280945 408.285156,459.216125 
	C409.513153,459.037140 410.677734,458.089722 411.766754,457.344177 
	C419.535522,452.025696 427.127075,446.430878 435.073059,441.394135 
	C441.864807,437.088989 449.056946,433.416168 456.064423,429.450256 
	C458.488495,428.078339 460.911255,426.701904 463.297516,425.265839 
	C470.396240,420.993774 477.571167,416.837891 484.532135,412.350830 
	C489.505524,409.144958 494.182068,405.478607 499.460693,402.011047 
	C542.342163,402.004486 584.753967,402.008392 627.165771,402.002136 
	C637.711853,402.000580 640.994080,398.789276 641.000732,388.456329 
	C641.012207,370.660004 641.013733,352.863647 640.990845,335.067352 
	C640.979004,325.866638 637.303650,322.196838 628.066895,321.622803 
	C629.416870,319.468414 630.346313,317.194061 632.037109,315.980347 
	C635.096313,313.784332 638.694946,312.358337 641.913757,310.361633 
	C646.673462,307.409058 651.298828,304.239868 655.980103,301.160889 
	C660.878357,297.939178 665.792358,294.740753 670.665344,291.481171 
	C673.120056,289.839203 675.309265,287.043732 677.945740,286.562622 
	C688.715393,284.597290 695.749756,276.216370 704.942261,271.603027 
	C710.047791,269.040802 714.540771,265.285461 719.473328,262.341949 
	C722.944885,260.270325 726.784180,258.819153 730.281921,256.785889 
	C732.473328,255.512085 734.182251,253.406189 736.377258,252.141495 
	C741.289551,249.311127 746.404236,246.834351 751.366089,244.086594 
	C753.367065,242.978531 755.121338,241.431244 757.099121,240.273865 
	C760.051575,238.545990 763.142334,237.054718 766.099426,235.334152 
	C768.649780,233.850220 771.017090,232.042374 773.604797,230.633865 
	C778.325623,228.064224 783.741150,226.391327 787.764526,223.026382 
	C791.794434,219.656052 795.920776,218.233139 800.898804,218.456299 
	C800.921692,258.278351 800.876282,297.635651 800.439880,336.996826 
	C794.389221,339.148621 788.087219,340.344025 783.200928,343.638977 
	C772.379211,350.936188 762.344055,359.402832 749.748169,363.737488 
	C748.689697,364.101776 747.828979,365.026215 746.858337,365.662842 
	C740.845154,369.606873 734.968201,373.784180 728.772278,377.417328 
	C721.882935,381.457184 714.520874,384.699799 707.687866,388.825012 
	C696.416809,395.629639 685.444214,402.926727 674.265381,409.887085 
	C669.827881,412.650055 665.049133,414.870514 660.649292,417.687225 
	C652.944397,422.619659 645.579651,428.099701 637.750366,432.815796 
	C632.285645,436.107605 626.136719,438.245880 620.561523,441.376831 
	C614.416748,444.827789 608.566101,448.805176 602.624390,452.611115 
	C601.966248,453.032654 601.638916,453.948639 601.003784,454.432800 
	C599.757812,455.382629 598.469971,456.320007 597.081543,457.032959 
	C591.378235,459.961670 584.842468,461.886841 580.124329,465.940338 
	C575.547302,469.872528 570.741760,472.417664 565.330139,474.571350 
	C561.815491,475.970062 557.277039,476.750854 557.000000,482.000000 
z"/>
<path fill="#4F81CC" opacity="1.000000" stroke="none" 
	d="
M1.000000,443.437500 
	C3.280910,446.522003 4.613529,448.279602 8.246701,443.288757 
	C10.770320,439.822052 16.234234,438.243988 20.650667,436.493774 
	C23.693266,435.287933 25.780109,433.844604 27.915785,431.173401 
	C30.044111,428.511383 34.258224,427.539520 37.519283,425.756104 
	C44.868137,421.737091 52.172897,417.637146 59.534386,413.641571 
	C65.291649,410.516754 71.108383,407.501587 76.894669,404.430054 
	C77.333595,404.197021 77.860367,403.995026 78.144020,403.623932 
	C83.242699,396.953949 90.450729,393.001678 97.774239,389.716553 
	C102.717850,387.499023 106.237915,383.745148 110.592773,381.050751 
	C116.430527,377.438934 122.860291,374.783142 129.041336,371.727966 
	C129.784637,371.360596 130.646896,371.182037 131.310059,370.712616 
	C136.527435,367.019318 141.907639,363.570648 147.286530,360.174622 
	C151.498734,357.515198 155.390289,355.086487 160.595367,354.472534 
	C161.001968,366.093597 160.995148,377.256073 161.008209,388.418518 
	C161.019806,398.338379 164.646927,401.990387 174.532898,401.994385 
	C217.350159,402.011566 260.167419,402.015656 302.900391,402.364105 
	C301.969238,403.680450 301.302979,404.969879 300.244904,405.580841 
	C295.142975,408.526794 289.835083,411.123016 284.788483,414.156433 
	C276.836151,418.936432 269.055176,424.000763 261.144226,428.851135 
	C260.073151,429.507843 258.582642,429.449707 257.439209,430.025879 
	C255.411362,431.047638 253.449188,432.225006 251.561081,433.488983 
	C250.483078,434.210663 249.724869,435.434052 248.619049,436.086395 
	C240.036835,441.149445 231.414017,446.143982 222.783646,451.124878 
	C219.790131,452.852539 216.642868,454.329559 213.732391,456.182678 
	C201.572388,463.924988 190.005173,472.668274 176.133911,477.450836 
	C174.435059,478.036591 173.362686,480.439301 172.000000,482.000000 
	C125.979103,482.000000 79.958214,482.000000 33.315598,481.674194 
	C22.913986,478.382050 14.148498,473.709656 8.471680,464.924164 
	C5.470446,460.279419 3.458550,454.995392 1.000000,450.000000 
	C1.000000,447.958344 1.000000,445.916656 1.000000,443.437500 
z"/>
<path fill="#6194CC" opacity="1.000000" stroke="none" 
	d="
M557.468628,482.000000 
	C557.277039,476.750854 561.815491,475.970062 565.330139,474.571350 
	C570.741760,472.417664 575.547302,469.872528 580.124329,465.940338 
	C584.842468,461.886841 591.378235,459.961670 597.081543,457.032959 
	C598.469971,456.320007 599.757812,455.382629 601.003784,454.432800 
	C601.638916,453.948639 601.966248,453.032654 602.624390,452.611115 
	C608.566101,448.805176 614.416748,444.827789 620.561523,441.376831 
	C626.136719,438.245880 632.285645,436.107605 637.750366,432.815796 
	C645.579651,428.099701 652.944397,422.619659 660.649292,417.687225 
	C665.049133,414.870514 669.827881,412.650055 674.265381,409.887085 
	C685.444214,402.926727 696.416809,395.629639 707.687866,388.825012 
	C714.520874,384.699799 721.882935,381.457184 728.772278,377.417328 
	C734.968201,373.784180 740.845154,369.606873 746.858337,365.662842 
	C747.828979,365.026215 748.689697,364.101776 749.748169,363.737488 
	C762.344055,359.402832 772.379211,350.936188 783.200928,343.638977 
	C788.087219,340.344025 794.389221,339.148621 800.506348,337.461853 
	C800.970520,372.173737 801.078918,406.424835 800.944702,440.675018 
	C800.868042,460.249268 790.087524,474.501343 771.463684,480.420227 
	C770.263000,480.801819 769.152466,481.466827 768.000000,482.000000 
	C697.979126,482.000000 627.958191,482.000000 557.468628,482.000000 
z"/>
<path fill="#3D70CC" opacity="1.000000" stroke="none" 
	d="
M363.995483,2.168630 
	C361.872955,4.598174 360.178253,7.736689 357.547638,9.324196 
	C349.687927,14.067246 341.313812,17.954018 333.419800,22.645035 
	C325.480316,27.363054 317.934082,32.737526 310.110657,37.657566 
	C299.472198,44.347923 288.827271,51.037468 278.010895,57.432686 
	C268.418823,63.104015 258.508606,68.235664 248.887436,73.859818 
	C240.094421,78.999855 231.497360,84.475357 222.819855,89.812607 
	C214.815582,94.735756 206.903793,99.816292 198.795425,104.561157 
	C190.723389,109.284744 182.419205,113.609955 174.296509,118.249397 
	C171.295609,119.963425 168.589905,122.187103 165.631989,123.984901 
	C155.899918,129.899963 146.018005,135.573776 136.379471,141.635712 
	C128.820572,146.389725 121.688095,151.826996 114.086082,156.505630 
	C107.389618,160.626953 100.289467,164.089462 93.400604,167.902573 
	C90.972984,169.246307 88.612366,170.719009 86.279633,172.223465 
	C84.744904,173.213287 83.418640,174.560425 81.820076,175.411362 
	C74.275154,179.427567 66.523643,183.076675 59.126682,187.343613 
	C52.408127,191.219208 46.069530,195.750351 39.528271,199.937576 
	C35.663990,202.411194 31.777437,204.856644 27.819458,207.175766 
	C20.730093,211.329620 13.605528,215.425629 6.431539,219.430923 
	C5.026611,220.215317 3.330783,220.478668 1.384560,220.991165 
	C1.000000,203.979111 1.000000,186.958206 1.343147,169.383057 
	C7.690022,165.434860 13.814842,162.235214 19.662472,158.590805 
	C25.203409,155.137543 30.275873,150.920517 35.873650,147.573364 
	C44.231163,142.576035 52.983429,138.240036 61.354908,133.264557 
	C69.757599,128.270538 77.894806,122.830299 86.157494,117.600044 
	C90.852997,114.627808 95.462349,111.498955 100.299240,108.775887 
	C106.135963,105.489929 112.259048,102.711037 118.080200,99.399788 
	C120.399162,98.080711 122.210251,95.885674 124.315559,94.166580 
	C125.284019,93.375778 126.353966,92.673805 127.464371,92.098465 
	C132.140121,89.675781 136.986374,87.549095 141.509094,84.872795 
	C146.848007,81.713509 151.758911,77.820724 157.143250,74.750877 
	C164.151001,70.755463 171.638489,67.585747 178.556015,63.452320 
	C185.576096,59.257626 192.042252,54.147121 198.952393,49.754517 
	C208.387512,43.756851 217.938492,37.931767 227.579086,32.269833 
	C236.440765,27.065350 245.588272,22.345163 254.416641,17.087156 
	C260.463440,13.485805 266.220581,9.387960 272.001129,5.359839 
	C272.948059,4.699987 273.346039,3.252319 274.462067,2.099674 
	C304.616119,2.076600 334.305786,2.122616 363.995483,2.168630 
z"/>
<path fill="#5588CC" opacity="1.000000" stroke="none" 
	d="
M172.468658,482.000000 
	C173.362686,480.439301 174.435059,478.036591 176.133911,477.450836 
	C190.005173,472.668274 201.572388,463.924988 213.732391,456.182678 
	C216.642868,454.329559 219.790131,452.852539 222.783646,451.124878 
	C231.414017,446.143982 240.036835,441.149445 248.619049,436.086395 
	C249.724869,435.434052 250.483078,434.210663 251.561081,433.488983 
	C253.449188,432.225006 255.411362,431.047638 257.439209,430.025879 
	C258.582642,429.449707 260.073151,429.507843 261.144226,428.851135 
	C269.055176,424.000763 276.836151,418.936432 284.788483,414.156433 
	C289.835083,411.123016 295.142975,408.526794 300.244904,405.580841 
	C301.302979,404.969879 301.969238,403.680450 303.319946,402.356689 
	C305.220367,401.998199 306.616913,401.986725 308.480560,401.979736 
	C357.633423,401.983978 406.319153,401.983765 455.473236,401.987122 
	C470.291412,401.999725 484.641266,402.008728 498.991089,402.017731 
	C494.182068,405.478607 489.505524,409.144958 484.532135,412.350830 
	C477.571167,416.837891 470.396240,420.993774 463.297516,425.265839 
	C460.911255,426.701904 458.488495,428.078339 456.064423,429.450256 
	C449.056946,433.416168 441.864807,437.088989 435.073059,441.394135 
	C427.127075,446.430878 419.535522,452.025696 411.766754,457.344177 
	C410.677734,458.089722 409.513153,459.037140 408.285156,459.216125 
	C400.978821,460.280945 396.525970,466.423706 390.328583,469.154755 
	C383.635803,472.104187 379.205902,479.274902 371.006409,479.271271 
	C370.376312,479.270966 369.745605,480.567169 369.057617,481.630371 
	C303.645782,482.000000 238.291550,482.000000 172.468658,482.000000 
z"/>
<path fill="#3B6ECC" opacity="1.000000" stroke="none" 
	d="
M273.997711,2.168766 
	C273.346039,3.252319 272.948059,4.699987 272.001129,5.359839 
	C266.220581,9.387960 260.463440,13.485805 254.416641,17.087156 
	C245.588272,22.345163 236.440765,27.065350 227.579086,32.269833 
	C217.938492,37.931767 208.387512,43.756851 198.952393,49.754517 
	C192.042252,54.147121 185.576096,59.257626 178.556015,63.452320 
	C171.638489,67.585747 164.151001,70.755463 157.143250,74.750877 
	C151.758911,77.820724 146.848007,81.713509 141.509094,84.872795 
	C136.986374,87.549095 132.140121,89.675781 127.464371,92.098465 
	C126.353966,92.673805 125.284019,93.375778 124.315559,94.166580 
	C122.210251,95.885674 120.399162,98.080711 118.080200,99.399788 
	C112.259048,102.711037 106.135963,105.489929 100.299240,108.775887 
	C95.462349,111.498955 90.852997,114.627808 86.157494,117.600044 
	C77.894806,122.830299 69.757599,128.270538 61.354908,133.264557 
	C52.983429,138.240036 44.231163,142.576035 35.873650,147.573364 
	C30.275873,150.920517 25.203409,155.137543 19.662472,158.590805 
	C13.814842,162.235214 7.690022,165.434860 1.343147,168.914398 
	C1.000000,152.645767 1.000000,136.291550 1.375386,119.459892 
	C2.974875,118.560684 4.302208,118.318420 5.404392,117.684624 
	C9.239585,115.479256 12.927361,113.012009 16.801565,110.881409 
	C21.403683,108.350471 26.284176,106.305031 30.785486,103.616348 
	C37.541992,99.580597 44.018044,95.078163 50.720669,90.948349 
	C55.062725,88.272987 59.751682,86.145203 64.008980,83.351181 
	C71.262390,78.590843 78.298126,73.498871 85.427711,68.549683 
	C85.562531,68.456093 85.732605,68.415092 85.876984,68.333252 
	C92.782997,64.418579 99.449005,59.970493 106.657791,56.729740 
	C114.450294,53.226574 121.606392,48.895367 128.546844,44.011284 
	C133.245605,40.704693 138.588364,38.245346 142.994583,34.619053 
	C145.263214,32.751976 146.603348,30.854647 150.049255,31.474403 
	C151.868729,31.801640 155.427094,30.689688 155.773773,29.512735 
	C157.083389,25.066790 161.442886,25.120626 163.824493,22.866835 
	C170.632980,16.423788 179.161041,13.973263 187.158295,10.112234 
	C190.313873,8.588734 192.415344,4.881819 195.461075,2.099229 
	C221.949478,2.075812 247.973587,2.122288 273.997711,2.168766 
z"/>
<path fill="#386ACC" opacity="1.000000" stroke="none" 
	d="
M194.996796,2.169124 
	C192.415344,4.881819 190.313873,8.588734 187.158295,10.112234 
	C179.161041,13.973263 170.632980,16.423788 163.824493,22.866835 
	C161.442886,25.120626 157.083389,25.066790 155.773773,29.512735 
	C155.427094,30.689688 151.868729,31.801640 150.049255,31.474403 
	C146.603348,30.854647 145.263214,32.751976 142.994583,34.619053 
	C138.588364,38.245346 133.245605,40.704693 128.546844,44.011284 
	C121.606392,48.895367 114.450294,53.226574 106.657791,56.729740 
	C99.449005,59.970493 92.782997,64.418579 85.876984,68.333252 
	C85.732605,68.415092 85.562531,68.456093 85.427711,68.549683 
	C78.298126,73.498871 71.262390,78.590843 64.008980,83.351181 
	C59.751682,86.145203 55.062725,88.272987 50.720669,90.948349 
	C44.018044,95.078163 37.541992,99.580597 30.785486,103.616348 
	C26.284176,106.305031 21.403683,108.350471 16.801565,110.881409 
	C12.927361,113.012009 9.239585,115.479256 5.404392,117.684624 
	C4.302208,118.318420 2.974875,118.560684 1.375386,118.991234 
	C1.000000,90.979103 1.000000,62.958210 1.330172,34.322281 
	C8.292397,10.429944 26.160255,1.126673 48.022354,1.844828 
	C69.164726,2.539341 90.347672,1.978841 111.512756,2.006016 
	C139.340790,2.041747 167.168777,2.113093 194.996796,2.169124 
z"/>
<path fill="#FEFEFF" opacity="1.000000" stroke="none" 
	d="
M195.461075,2.099230 
	C167.168777,2.113093 139.340790,2.041747 111.512756,2.006016 
	C90.347672,1.978841 69.164726,2.539341 48.022354,1.844828 
	C26.160255,1.126673 8.292397,10.429944 1.330172,33.853622 
	C1.000000,23.003559 1.000000,12.007119 1.000000,1.008009 
	C268.243256,1.005339 535.486511,1.005339 802.864868,1.005339 
	C802.864868,161.333252 802.864868,321.666595 802.864868,482.000000 
	C791.596436,482.000000 780.266907,482.000000 768.468628,482.000000 
	C769.152466,481.466827 770.263000,480.801819 771.463684,480.420227 
	C790.087524,474.501343 800.868042,460.249268 800.944702,440.675018 
	C801.078918,406.424835 800.970520,372.173737 800.897339,337.457977 
	C800.876282,297.635651 800.921692,258.278351 800.958923,217.991577 
	C800.963440,207.927383 800.997498,198.792648 800.984863,189.657974 
	C800.942078,158.769150 800.882751,127.880348 800.891724,96.527039 
	C800.966187,78.421707 801.138916,60.779156 800.951538,43.140434 
	C800.706116,20.040276 784.777405,3.222751 761.930664,2.143844 
	C751.973145,1.673613 741.971863,2.132105 731.990417,2.168819 
	C723.843262,2.116405 715.696167,2.019666 707.549011,2.018646 
	C646.673462,2.011019 585.797852,2.022324 524.457764,2.097907 
	C499.062378,2.113619 474.131470,2.032149 449.200531,2.011779 
	C421.108490,1.988826 393.016357,2.020902 364.459900,2.098838 
	C334.305786,2.122616 304.616119,2.076600 274.462067,2.099674 
	C247.973587,2.122288 221.949478,2.075812 195.461075,2.099230 
z"/>
<path fill="#FCFDFE" opacity="1.000000" stroke="none" 
	d="
M1.000000,450.468658 
	C3.458550,454.995392 5.470446,460.279419 8.471680,464.924164 
	C14.148498,473.709656 22.913986,478.382050 32.846939,481.674194 
	C22.406794,482.000000 11.813587,482.000000 1.000000,482.000000 
	C1.000000,471.646820 1.000000,461.292053 1.000000,450.468658 
z"/>
<path fill="#4E81CC" opacity="1.000000" stroke="none" 
	d="
M731.897949,2.485913 
	C741.971863,2.132105 751.973145,1.673613 761.930664,2.143844 
	C784.777405,3.222751 800.706116,20.040276 800.951538,43.140434 
	C801.138916,60.779156 800.966187,78.421707 800.514832,96.537918 
	C795.202942,99.660652 790.190735,102.084038 785.486755,105.003845 
	C776.741272,110.432205 768.328369,116.406418 759.492920,121.677170 
	C750.108398,127.275497 740.393372,132.319672 730.825317,137.610672 
	C730.243774,137.932281 729.666931,138.269119 729.119995,138.645508 
	C724.965576,141.504028 720.910522,144.520142 716.639526,147.191574 
	C713.573669,149.109207 710.143555,150.435242 707.012634,152.259766 
	C693.199158,160.309509 680.367493,170.046936 665.541626,176.359894 
	C665.095825,176.549713 664.753662,176.969650 664.334534,177.237549 
	C658.078308,181.236343 651.872864,185.318375 645.542664,189.196655 
	C638.354797,193.600403 630.966553,197.681000 623.836304,202.173355 
	C619.675415,204.794891 615.968140,208.131607 611.834778,210.803085 
	C608.433533,213.001389 604.636047,214.576294 601.139526,216.639969 
	C596.735840,219.239059 592.568604,222.250809 588.101685,224.727982 
	C582.142822,228.032516 575.991760,230.990219 569.930725,234.111343 
	C569.491760,234.337372 569.114380,234.682312 568.706543,234.969421 
	C565.124817,237.490799 561.643250,240.171707 557.938782,242.497665 
	C551.233093,246.708099 544.441833,250.788254 537.597107,254.769531 
	C531.449524,258.345367 525.104065,261.584717 519.001709,265.233063 
	C516.082092,266.978577 513.721924,270.630981 510.752197,271.083771 
	C506.741028,271.695343 504.207306,273.612061 501.341064,275.914154 
	C498.128632,278.494324 494.544403,280.648926 490.978577,282.744781 
	C480.566711,288.864441 470.036072,294.783112 459.660736,300.963135 
	C457.009857,302.542084 454.928558,305.068634 452.295135,306.687286 
	C446.324829,310.356781 440.094696,313.605133 434.146332,317.307678 
	C432.449677,318.363770 431.357788,320.391449 429.520630,321.976105 
	C355.032959,321.980804 281.013184,321.982941 206.993378,321.985046 
	C208.470795,320.229401 209.765778,317.178894 211.457001,316.940582 
	C219.079041,315.866577 223.740311,309.983185 229.820587,306.502441 
	C242.147278,299.445923 254.228714,291.959595 266.378448,284.596375 
	C269.320587,282.813324 272.269440,280.992218 274.976990,278.882874 
	C279.063446,275.699280 283.042511,273.173187 288.586334,272.351837 
	C292.123230,271.827759 294.875763,267.237610 298.403229,265.205048 
	C312.135040,257.292694 326.035980,249.673843 340.523438,242.054352 
	C358.665039,267.610809 388.554535,279.189972 418.193695,272.000732 
	C450.184021,264.241241 472.912750,235.290497 473.043823,202.473282 
	C473.097534,189.025269 469.387360,176.700729 463.121399,164.989883 
	C466.144470,163.670441 469.289307,162.572693 472.168671,160.991562 
	C482.294861,155.430984 492.441528,149.891068 502.352478,143.962265 
	C507.354706,140.969894 511.838135,137.117569 516.622009,133.747604 
	C517.793213,132.922546 519.290283,132.573730 520.519653,131.814880 
	C522.971375,130.301529 525.343567,128.659088 527.744019,127.063034 
	C528.832703,126.339203 529.820190,125.193245 531.007080,124.929359 
	C541.629944,122.567543 548.676025,114.320389 557.508911,109.033005 
	C566.461121,103.674133 575.514404,98.484138 584.469360,93.129692 
	C588.960815,90.444122 593.241638,87.397896 597.790955,84.820618 
	C600.580627,83.240204 603.851990,82.506958 606.631775,80.913139 
	C610.552368,78.665237 614.158997,75.877434 618.005737,73.491188 
	C625.008179,69.147423 631.999390,64.772331 639.160156,60.700340 
	C647.228882,56.112080 655.641113,52.112732 663.591309,47.336781 
	C668.439087,44.424538 672.656433,40.474873 677.252197,37.121735 
	C678.266907,36.381413 679.795044,36.376019 680.892883,35.711849 
	C683.222351,34.302673 685.427307,32.687054 687.677124,31.147070 
	C688.755676,30.408817 689.737183,29.180769 690.904175,28.974281 
	C701.050598,27.178988 707.449341,19.006216 715.928772,14.385280 
	C720.830261,11.714195 725.285583,8.216169 729.889038,5.014581 
	C730.665161,4.474833 731.173401,3.549941 731.897949,2.485913 
z"/>
<path fill="#618ED1" opacity="1.000000" stroke="none" 
	d="
M206.525421,321.989563 
	C281.013184,321.982941 355.032959,321.980804 429.939514,321.983887 
	C432.221313,322.001251 433.616394,322.013397 434.977539,322.384521 
	C429.900177,326.490845 425.351776,331.753845 419.688507,333.603485 
	C412.542542,335.937378 408.126587,341.551971 401.906647,344.792816 
	C395.779846,347.985138 390.208923,352.227264 384.278015,355.816925 
	C377.353241,360.008209 370.285675,363.962860 363.314301,368.078186 
	C360.051392,370.004242 356.966064,372.248596 353.629395,374.028351 
	C347.148468,377.485260 339.731720,379.728394 334.202942,384.291931 
	C327.384857,389.919739 319.507324,392.941498 312.012024,396.985168 
	C310.284576,397.917145 309.325897,400.274048 308.013428,401.975220 
	C306.616913,401.986725 305.220367,401.998199 303.404266,402.017090 
	C260.167419,402.015656 217.350159,402.011566 174.532898,401.994385 
	C164.646927,401.990387 161.019806,398.338379 161.008209,388.418518 
	C160.995148,377.256073 161.001968,366.093597 160.991577,354.461670 
	C160.991867,347.165985 160.935074,340.338898 161.027603,333.513794 
	C161.125137,326.319885 165.359970,322.086334 172.592361,322.031464 
	C183.746841,321.946808 194.902374,321.999573 206.525421,321.989563 
z"/>
<path fill="#FEFEFE" opacity="1.000000" stroke="none" 
	d="
M462.857056,164.768753 
	C469.387360,176.700729 473.097534,189.025269 473.043823,202.473282 
	C472.912750,235.290497 450.184021,264.241241 418.193695,272.000732 
	C388.554535,279.189972 358.665039,267.610809 340.927551,241.961761 
	C332.882751,229.224045 328.521973,215.669464 329.019684,200.809555 
	C329.895203,174.668793 341.220551,154.111618 363.582703,140.606415 
	C398.478821,119.531540 440.295074,129.944946 462.857056,164.768753 
M443.799164,231.954041 
	C459.343201,230.727631 463.095032,214.228745 457.859497,203.972366 
	C456.301849,200.920975 454.518585,197.984756 452.975922,194.107788 
	C452.937683,191.947815 453.216339,189.726624 452.812836,187.637192 
	C448.078339,163.121948 432.386261,148.697189 407.307526,145.835861 
	C375.535217,142.210831 349.564087,164.692032 349.575897,195.610931 
	C348.959320,197.259766 348.702026,199.188080 347.670532,200.514175 
	C337.454895,213.646881 343.577362,229.473099 360.266388,232.682114 
	C362.482971,233.086029 364.958557,234.252762 366.823090,233.619751 
	C368.021576,233.212860 368.892395,230.169388 368.928467,228.288849 
	C369.122650,218.175369 369.191620,208.049698 368.844421,197.944016 
	C368.776794,195.975677 366.677765,194.077133 365.515717,192.146362 
	C363.626465,193.327118 361.737213,194.507874 359.303375,195.707703 
	C358.839264,195.471542 358.375183,195.235397 357.994507,194.125153 
	C358.142761,191.988739 357.999603,189.783600 358.484558,187.726578 
	C363.058502,168.326691 374.895416,156.804535 394.895782,153.665756 
	C417.792053,150.072479 443.855743,165.467270 444.958313,194.579254 
	C444.358154,194.948257 443.757996,195.317261 443.002808,195.003265 
	C440.913666,194.130096 438.655029,192.353699 436.795197,192.702637 
	C435.564087,192.933640 434.165588,196.192627 434.113403,198.130280 
	C433.840027,208.279892 433.835815,218.443817 434.087433,228.594131 
	C434.134033,230.474564 435.473633,233.555084 436.764679,233.875946 
	C438.578949,234.326843 440.905914,232.714859 443.799164,231.954041 
M421.501343,201.884384 
	C420.975739,199.104660 425.420837,195.745728 420.581604,193.398453 
	C425.836243,186.645218 427.830872,174.688278 425.171692,165.044403 
	C424.414093,165.328430 423.667694,165.586349 422.937988,165.885010 
	C396.839233,176.566940 376.652710,197.309113 382.744080,230.585526 
	C383.731293,235.978592 382.145325,241.877670 381.524567,247.518173 
	C381.088684,251.479172 380.272339,255.398300 379.625885,259.336151 
	C380.220825,259.598938 380.815735,259.861725 381.410645,260.124512 
	C384.271057,256.078247 389.111237,252.232834 389.546783,247.940521 
	C390.274048,240.773117 393.465881,236.514038 398.748535,232.514008 
	C403.439514,228.961990 407.666901,224.765610 411.847839,220.601562 
	C412.604004,219.848465 412.146149,217.876419 412.302490,215.729675 
	C416.614105,213.169968 419.737946,208.503906 421.501343,201.884384 
z"/>
<path fill="#5487CC" opacity="1.000000" stroke="none" 
	d="
M435.011444,322.025513 
	C433.616394,322.013397 432.221313,322.001251 430.407410,321.981323 
	C431.357788,320.391449 432.449677,318.363770 434.146332,317.307678 
	C440.094696,313.605133 446.324829,310.356781 452.295135,306.687286 
	C454.928558,305.068634 457.009857,302.542084 459.660736,300.963135 
	C470.036072,294.783112 480.566711,288.864441 490.978577,282.744781 
	C494.544403,280.648926 498.128632,278.494324 501.341064,275.914154 
	C504.207306,273.612061 506.741028,271.695343 510.752197,271.083771 
	C513.721924,270.630981 516.082092,266.978577 519.001709,265.233063 
	C525.104065,261.584717 531.449524,258.345367 537.597107,254.769531 
	C544.441833,250.788254 551.233093,246.708099 557.938782,242.497665 
	C561.643250,240.171707 565.124817,237.490799 568.706543,234.969421 
	C569.114380,234.682312 569.491760,234.337372 569.930725,234.111343 
	C575.991760,230.990219 582.142822,228.032516 588.101685,224.727982 
	C592.568604,222.250809 596.735840,219.239059 601.139526,216.639969 
	C604.636047,214.576294 608.433533,213.001389 611.834778,210.803085 
	C615.968140,208.131607 619.675415,204.794891 623.836304,202.173355 
	C630.966553,197.681000 638.354797,193.600403 645.542664,189.196655 
	C651.872864,185.318375 658.078308,181.236343 664.334534,177.237549 
	C664.753662,176.969650 665.095825,176.549713 665.541626,176.359894 
	C680.367493,170.046936 693.199158,160.309509 707.012634,152.259766 
	C710.143555,150.435242 713.573669,149.109207 716.639526,147.191574 
	C720.910522,144.520142 724.965576,141.504028 729.119995,138.645508 
	C729.666931,138.269119 730.243774,137.932281 730.825317,137.610672 
	C740.393372,132.319672 750.108398,127.275497 759.492920,121.677170 
	C768.328369,116.406418 776.741272,110.432205 785.486755,105.003845 
	C790.190735,102.084038 795.202942,99.660652 800.452881,97.002411 
	C800.882751,127.880348 800.942078,158.769150 800.984863,189.657974 
	C800.997498,198.792648 800.963440,207.927383 800.890625,217.526810 
	C795.920776,218.233139 791.794434,219.656052 787.764526,223.026382 
	C783.741150,226.391327 778.325623,228.064224 773.604797,230.633865 
	C771.017090,232.042374 768.649780,233.850220 766.099426,235.334152 
	C763.142334,237.054718 760.051575,238.545990 757.099121,240.273865 
	C755.121338,241.431244 753.367065,242.978531 751.366089,244.086594 
	C746.404236,246.834351 741.289551,249.311127 736.377258,252.141495 
	C734.182251,253.406189 732.473328,255.512085 730.281921,256.785889 
	C726.784180,258.819153 722.944885,260.270325 719.473328,262.341949 
	C714.540771,265.285461 710.047791,269.040802 704.942261,271.603027 
	C695.749756,276.216370 688.715393,284.597290 677.945740,286.562622 
	C675.309265,287.043732 673.120056,289.839203 670.665344,291.481171 
	C665.792358,294.740753 660.878357,297.939178 655.980103,301.160889 
	C651.298828,304.239868 646.673462,307.409058 641.913757,310.361633 
	C638.694946,312.358337 635.096313,313.784332 632.037109,315.980347 
	C630.346313,317.194061 629.416870,319.468414 627.599426,321.626587 
	C611.370605,321.997742 595.686462,322.006958 579.533569,322.009521 
	C531.046997,322.010437 483.029205,322.017975 435.011444,322.025513 
z"/>
<path fill="#6A97D2" opacity="1.000000" stroke="none" 
	d="
M580.002380,322.016144 
	C595.686462,322.006958 611.370605,321.997742 627.522217,321.984741 
	C637.303650,322.196838 640.979004,325.866638 640.990845,335.067352 
	C641.013733,352.863647 641.012207,370.660004 641.000732,388.456329 
	C640.994080,398.789276 637.711853,402.000580 627.165771,402.002136 
	C584.753967,402.008392 542.342163,402.004486 499.460693,402.011047 
	C484.641266,402.008728 470.291412,401.999725 455.480774,401.610413 
	C456.012726,399.656036 456.634827,397.493591 458.055420,396.598541 
	C473.061646,387.144257 488.175110,377.859222 503.304565,368.601959 
	C508.496033,365.425446 513.973022,362.695740 519.038574,359.338013 
	C526.405273,354.455017 535.660706,352.578979 541.454224,345.155060 
	C542.290649,344.083313 543.893311,343.496185 545.251343,342.967072 
	C548.766235,341.597595 552.604431,340.848297 555.840454,339.015900 
	C562.799683,335.075226 569.517639,330.694458 576.202820,326.294098 
	C577.741333,325.281403 578.749878,323.463501 580.002380,322.016144 
z"/>
<path fill="#6793D2" opacity="1.000000" stroke="none" 
	d="
M579.533569,322.009521 
	C578.749878,323.463501 577.741333,325.281403 576.202820,326.294098 
	C569.517639,330.694458 562.799683,335.075226 555.840454,339.015900 
	C552.604431,340.848297 548.766235,341.597595 545.251343,342.967072 
	C543.893311,343.496185 542.290649,344.083313 541.454224,345.155060 
	C535.660706,352.578979 526.405273,354.455017 519.038574,359.338013 
	C513.973022,362.695740 508.496033,365.425446 503.304565,368.601959 
	C488.175110,377.859222 473.061646,387.144257 458.055420,396.598541 
	C456.634827,397.493591 456.012726,399.656036 455.012390,401.606812 
	C406.319153,401.983765 357.633423,401.983978 308.480560,401.979706 
	C309.325897,400.274048 310.284576,397.917145 312.012024,396.985168 
	C319.507324,392.941498 327.384857,389.919739 334.202942,384.291931 
	C339.731720,379.728394 347.148468,377.485260 353.629395,374.028351 
	C356.966064,372.248596 360.051392,370.004242 363.314301,368.078186 
	C370.285675,363.962860 377.353241,360.008209 384.278015,355.816925 
	C390.208923,352.227264 395.779846,347.985138 401.906647,344.792816 
	C408.126587,341.551971 412.542542,335.937378 419.688507,333.603485 
	C425.351776,331.753845 429.900177,326.490845 434.977539,322.384521 
	C483.029205,322.017975 531.046997,322.010437 579.533569,322.009521 
z"/>
<path fill="#25668B" opacity="1.000000" stroke="none" 
	d="
M349.926331,194.981140 
	C349.564087,164.692032 375.535217,142.210831 407.307526,145.835861 
	C432.386261,148.697189 448.078339,163.121948 452.812836,187.637192 
	C453.216339,189.726624 452.937683,191.947815 452.513092,194.550735 
	C449.745178,194.662460 447.440094,194.331238 445.135010,194.000015 
	C443.855743,165.467270 417.792053,150.072479 394.895782,153.665756 
	C374.895416,156.804535 363.058502,168.326691 358.484558,187.726578 
	C357.999603,189.783600 358.142761,191.988739 357.511108,194.562897 
	C354.660553,194.994141 352.293457,194.987640 349.926331,194.981140 
z"/>
<path fill="#29678A" opacity="1.000000" stroke="none" 
	d="
M421.326324,202.243469 
	C419.737946,208.503906 416.614105,213.169968 412.302490,215.729675 
	C412.146149,217.876419 412.604004,219.848465 411.847839,220.601562 
	C407.666901,224.765610 403.439514,228.961990 398.748535,232.514008 
	C393.465881,236.514038 390.274048,240.773117 389.546783,247.940521 
	C389.111237,252.232834 384.271057,256.078247 381.410645,260.124512 
	C380.815735,259.861725 380.220825,259.598938 379.625885,259.336151 
	C380.272339,255.398300 381.088684,251.479172 381.524567,247.518173 
	C382.145325,241.877670 383.731293,235.978592 382.744080,230.585526 
	C376.652710,197.309113 396.839233,176.566940 422.937988,165.885010 
	C423.667694,165.586349 424.414093,165.328430 425.171692,165.044403 
	C427.830872,174.688278 425.836243,186.645218 420.581604,193.398453 
	C425.420837,195.745728 420.975739,199.104660 421.326324,202.243469 
M390.780334,234.858231 
	C396.545807,229.873337 402.311279,224.888458 408.474152,219.559982 
	C405.307800,218.772781 403.166931,218.240524 400.733643,217.635559 
	C413.029877,211.128647 417.906891,203.389664 417.508240,197.506683 
	C415.305664,197.672852 413.087158,197.840210 409.604553,198.102936 
	C419.823425,190.419235 423.024597,180.825684 422.918762,169.559601 
	C403.377472,176.404587 386.844513,200.910156 386.802124,220.975754 
	C391.836792,212.251846 397.601837,202.262329 403.774017,192.725021 
	C403.910889,192.874695 404.047729,193.024384 404.038727,193.861908 
	C396.104065,206.329758 390.879364,219.764023 389.236023,235.066406 
	C389.276367,235.518509 389.316711,235.970612 389.357056,236.422714 
	C389.635773,236.007141 389.914490,235.591583 390.780334,234.858231 
z"/>
<path fill="#276A90" opacity="1.000000" stroke="none" 
	d="
M349.751099,195.296036 
	C352.293457,194.987640 354.660553,194.994141 357.469360,194.999939 
	C358.375183,195.235397 358.839264,195.471542 359.603821,196.185883 
	C359.923126,208.460434 359.942017,220.256821 359.960876,232.053207 
	C343.577362,229.473099 337.454895,213.646881 347.670532,200.514175 
	C348.702026,199.188080 348.959320,197.259766 349.751099,195.296036 
z"/>
<path fill="#276A90" opacity="1.000000" stroke="none" 
	d="
M445.046661,194.289642 
	C447.440094,194.331238 449.745178,194.662460 452.444489,194.994720 
	C454.518585,197.984756 456.301849,200.920975 457.859497,203.972366 
	C463.095032,214.228745 459.343201,230.727631 443.403931,231.502350 
	C443.058411,219.262512 443.108124,207.474396 443.157837,195.686264 
	C443.757996,195.317261 444.358154,194.948257 445.046661,194.289642 
z"/>
<path fill="#226082" opacity="1.000000" stroke="none" 
	d="
M443.080322,195.344757 
	C443.108124,207.474396 443.058411,219.262512 443.011139,231.517883 
	C440.905914,232.714859 438.578949,234.326843 436.764679,233.875946 
	C435.473633,233.555084 434.134033,230.474564 434.087433,228.594131 
	C433.835815,218.443817 433.840027,208.279892 434.113403,198.130280 
	C434.165588,196.192627 435.564087,192.933640 436.795197,192.702637 
	C438.655029,192.353699 440.913666,194.130096 443.080322,195.344757 
z"/>
<path fill="#226184" opacity="1.000000" stroke="none" 
	d="
M360.113647,232.367661 
	C359.942017,220.256821 359.923126,208.460434 359.876129,196.176331 
	C361.737213,194.507874 363.626465,193.327118 365.515717,192.146362 
	C366.677765,194.077133 368.776794,195.975677 368.844421,197.944016 
	C369.191620,208.049698 369.122650,218.175369 368.928467,228.288849 
	C368.892395,230.169388 368.021576,233.212860 366.823090,233.619751 
	C364.958557,234.252762 362.482971,233.086029 360.113647,232.367661 
z"/>
<path fill="#F7F9F9" opacity="1.000000" stroke="none" 
	d="
M403.366882,192.272827 
	C397.601837,202.262329 391.836792,212.251846 386.802124,220.975754 
	C386.844513,200.910156 403.377472,176.404587 422.918762,169.559601 
	C423.024597,180.825684 419.823425,190.419235 409.604553,198.102936 
	C413.087158,197.840210 415.305664,197.672852 417.508240,197.506683 
	C417.906891,203.389664 413.029877,211.128647 400.733643,217.635559 
	C403.166931,218.240524 405.307800,218.772781 408.474152,219.559982 
	C402.311279,224.888458 396.545807,229.873337 390.318909,234.866425 
	C389.857483,234.874634 389.518982,234.576416 389.518982,234.576416 
	C390.879364,219.764023 396.104065,206.329758 404.394684,193.362579 
	C405.156525,192.061829 405.562408,191.260391 405.968323,190.458954 
	C405.748352,190.351105 405.528381,190.243240 405.308441,190.135391 
	C404.661255,190.847870 404.014099,191.560364 403.366882,192.272827 
z"/>
<path fill="#F7F9F9" opacity="1.000000" stroke="none" 
	d="
M390.025330,235.025330 
	C389.914490,235.591583 389.635773,236.007141 389.357056,236.422714 
	C389.316711,235.970612 389.276367,235.518509 389.377502,234.821411 
	C389.518982,234.576416 389.857483,234.874634 390.025330,235.025330 
z"/>
<path fill="#29678A" opacity="1.000000" stroke="none" 
	d="
M403.570465,192.498932 
	C404.014099,191.560364 404.661255,190.847870 405.308441,190.135391 
	C405.528381,190.243240 405.748352,190.351105 405.968323,190.458954 
	C405.562408,191.260391 405.156525,192.061829 404.467590,193.018661 
	C404.047729,193.024384 403.910889,192.874695 403.570465,192.498932 
z"/>
</svg>