<?xml version="1.0" encoding="UTF-8" standalone="no"?>
<!-- Uploaded to: SVG Repo, www.svgrepo.com, Generator: SVG Repo Mixer Tools -->

<svg
   width="800px"
   height="800px"
   viewBox="0 0 24 24"
   fill="none"
   version="1.1"
   id="svg2"
   sodipodi:docname="lightbulb.svg"
   inkscape:version="1.3.2 (091e20e, 2023-11-25, custom)"
   xmlns:inkscape="http://www.inkscape.org/namespaces/inkscape"
   xmlns:sodipodi="http://sodipodi.sourceforge.net/DTD/sodipodi-0.dtd"
   xmlns="http://www.w3.org/2000/svg"
   xmlns:svg="http://www.w3.org/2000/svg">
  <defs
     id="defs2" />
  <sodipodi:namedview
     id="namedview2"
     pagecolor="#ffffff"
     bordercolor="#000000"
     borderopacity="0.25"
     inkscape:showpageshadow="2"
     inkscape:pageopacity="0.0"
     inkscape:pagecheckerboard="0"
     inkscape:deskcolor="#d1d1d1"
     inkscape:zoom="1.46625"
     inkscape:cx="400"
     inkscape:cy="400"
     inkscape:window-width="1350"
     inkscape:window-height="1237"
     inkscape:window-x="1544"
     inkscape:window-y="92"
     inkscape:window-maximized="0"
     inkscape:current-layer="svg2" />
  <path
     fill-rule="evenodd"
     clip-rule="evenodd"
     d="M9.25 18.7089C9.25 18.2894 9.58579 17.9494 10 17.9494H14C14.4142 17.9494 14.75 18.2894 14.75 18.7089C14.75 19.1283 14.4142 19.4684 14 19.4684H10C9.58579 19.4684 9.25 19.1283 9.25 18.7089ZM9.91667 21.2405C9.91667 20.821 10.2525 20.481 10.6667 20.481H13.3333C13.7475 20.481 14.0833 20.821 14.0833 21.2405C14.0833 21.66 13.7475 22 13.3333 22H10.6667C10.2525 22 9.91667 21.66 9.91667 21.2405Z"
     fill="#1C274C"
     id="path1" />
  <path
     d="M7.41058 13.8283L8.51463 14.8807C8.82437 15.1759 9 15.5875 9 16.0182C9 16.6653 9.518 17.1899 10.157 17.1899H13.843C14.482 17.1899 15 16.6653 15 16.0182C15 15.5875 15.1756 15.1759 15.4854 14.8807L16.5894 13.8283C18.1306 12.3481 18.9912 10.4034 18.9999 8.3817L19 8.29678C19 4.84243 15.866 2 12 2C8.13401 2 5 4.84243 5 8.29678L5.00007 8.3817C5.00875 10.4034 5.86939 12.3481 7.41058 13.8283Z"
     fill="#1C274C"
     id="path2" />
  <path
     style="fill:#0032d2;stroke-width:0.682012"
     d="m 329.59772,571.4885 c -12.10177,-2.93357 -23.00211,-13.01085 -27.09057,-25.045 -0.89787,-2.64285 -1.69004,-7.46674 -2.0997,-12.7861 -1.00214,-13.01252 -3.34772,-20.61504 -8.9399,-28.97606 -2.51321,-3.75754 -8.90949,-10.35225 -25.00125,-25.77683 -26.07858,-24.99734 -34.09581,-33.2947 -43.52773,-45.04869 -28.55333,-35.58293 -47.07413,-77.72278 -53.4305,-121.5689 -7.47446,-51.55873 2.02343,-98.15626 28.48255,-139.7379 14.23671,-22.37361 37.95914,-46.64402 61.17392,-62.58704 57.2997,-39.351212 132.29703,-52.599925 201.52706,-35.600915 42.14025,10.347282 79.32786,30.581255 109.01069,59.313275 50.17718,48.5699 70.79954,109.20502 60.77253,178.68713 -6.30452,43.68719 -24.87729,85.93289 -53.41339,121.49435 -9.43192,11.75399 -17.44915,20.05135 -43.52773,45.04869 -16.09176,15.42458 -22.48804,22.01929 -25.00125,25.77683 -5.59218,8.36102 -7.93776,15.96354 -8.9399,28.97606 -0.75618,9.81884 -2.3052,15.13429 -6.1111,20.97024 -5.53177,8.48236 -14.13532,14.71145 -23.30454,16.87283 -6.23681,1.47014 -134.51014,1.45922 -140.57919,-0.012 z"
     id="path3"
     transform="scale(0.03)" />
  <path
     style="fill:#0032d2;stroke-width:0.682012"
     d="m 330.05611,648.27021 c -8.09979,-1.2182 -15.66837,-6.96855 -19.1236,-14.52946 -1.64029,-3.58938 -1.9414,-5.1376 -1.95276,-10.04084 -0.0118,-5.09688 0.24525,-6.34502 2.1283,-10.33333 2.71607,-5.75268 6.64249,-9.68146 12.40346,-12.41091 l 4.53623,-2.14919 H 400 471.95226 l 4.53623,2.14919 c 5.76096,2.72945 9.68739,6.65823 12.40346,12.41091 1.88305,3.98831 2.14012,5.23645 2.12831,10.33333 -0.0114,4.91584 -0.31104,6.44842 -1.97103,10.08152 -2.48459,5.43785 -8.28362,10.97938 -13.83383,13.21957 l -3.94515,1.59235 -68.88321,0.0977 c -37.88576,0.0537 -70.43468,-0.13564 -72.33093,-0.42084 z"
     id="path4"
     transform="scale(0.03)" />
  <path
     style="fill:#0032d2;stroke-width:0.682012"
     d="m 347.77099,731.58832 c -4.58544,-1.59696 -8.73708,-4.73003 -11.97109,-9.03408 -9.2433,-12.30168 -4.36243,-30.65873 9.90486,-37.25234 l 4.16736,-1.92594 H 400 450.12788 l 4.09207,1.91014 c 5.17308,2.41476 9.40273,6.49402 12.16251,11.7301 2.00403,3.8022 2.15692,4.57518 2.15827,10.91219 10e-4,6.08996 -0.20287,7.23624 -1.90724,10.70696 -2.39412,4.87536 -7.09495,9.55875 -12.0241,11.97949 l -3.7995,1.86598 -49.78687,0.15715 c -46.10751,0.14553 -50.04296,0.068 -53.25203,-1.04965 z"
     id="path5"
     transform="scale(0.03)" />
  <path
     style="fill:#0032d2;stroke-width:0.682012"
     d="m 348.8491,731.50204 c -5.65039,-1.725 -12.05018,-7.21199 -14.87889,-12.75673 -5.9256,-11.61514 -0.55223,-26.86765 11.60563,-32.943 l 4.17314,-2.08534 50.18945,0.007 50.18945,0.007 3.41006,1.5974 c 5.02625,2.35447 10.15283,7.31329 12.57791,12.16631 1.867,3.73619 2.08529,4.82229 2.0848,10.37282 -4.7e-4,5.40598 -0.24963,6.72355 -1.94628,10.29175 -2.25928,4.75145 -7.15697,9.63182 -12.26219,12.21883 l -3.47795,1.76241 -49.98005,-0.0586 c -27.48902,-0.0322 -50.74731,-0.29286 -51.68508,-0.57915 z"
     id="path6"
     transform="scale(0.03)" />
</svg>
