<?xml version="1.0" encoding="UTF-8" standalone="no"?>
<!-- Uploaded to: SVG Repo, www.svgrepo.com, Generator: SVG Repo Mixer Tools -->

<svg
   fill="#000000"
   height="800px"
   width="800px"
   version="1.1"
   id="Layer_1"
   viewBox="0 0 512 512"
   xml:space="preserve"
   sodipodi:docname="magic-wand-witch-svgrepo-com.svg"
   inkscape:version="1.3.2 (091e20e, 2023-11-25)"
   xmlns:inkscape="http://www.inkscape.org/namespaces/inkscape"
   xmlns:sodipodi="http://sodipodi.sourceforge.net/DTD/sodipodi-0.dtd"
   xmlns="http://www.w3.org/2000/svg"
   xmlns:svg="http://www.w3.org/2000/svg"><defs
   id="defs9" /><sodipodi:namedview
   id="namedview9"
   pagecolor="#ffffff"
   bordercolor="#000000"
   borderopacity="0.25"
   inkscape:showpageshadow="2"
   inkscape:pageopacity="0.0"
   inkscape:pagecheckerboard="0"
   inkscape:deskcolor="#d1d1d1"
   showguides="false"
   inkscape:zoom="0.295"
   inkscape:cx="398.30508"
   inkscape:cy="400"
   inkscape:window-width="1312"
   inkscape:window-height="449"
   inkscape:window-x="0"
   inkscape:window-y="44"
   inkscape:window-maximized="0"
   inkscape:current-layer="Layer_1" />
<g
   id="g9">
	<g
   id="g8">
		<g
   id="g7">
			<path
   d="M323.658,263.766l75.435-75.435c8.333-8.333,8.331-21.843-0.004-30.173l-45.269-45.248     c-8.333-8.329-21.839-8.326-30.169,0.006l-75.152,75.173c-0.079,0.077-0.165,0.142-0.243,0.22L6.251,430.334     c-8.331,8.331-8.33,21.838,0.001,30.169L51.5,505.752c8.331,8.331,21.839,8.331,30.17,0l241.966-241.966     C323.643,263.778,323.651,263.773,323.658,263.766z M338.744,158.166l15.09,15.083l-45.24,45.24l-15.077-15.084L338.744,158.166z      M66.585,460.497l-15.079-15.079l211.808-211.827l15.088,15.088L66.585,460.497z"
   id="path1" />
			<path
   d="M490.663,149.333h-42.667c-11.782,0-21.333,9.551-21.333,21.333c0,11.782,9.551,21.333,21.333,21.333h42.667     c11.782,0,21.333-9.551,21.333-21.333C511.997,158.885,502.446,149.333,490.663,149.333z"
   id="path2" />
			<path
   d="M341.33,85.333c11.782,0,21.333-9.551,21.333-21.333V21.333C362.663,9.551,353.112,0,341.33,0     c-11.782,0-21.333,9.551-21.333,21.333V64C319.997,75.782,329.548,85.333,341.33,85.333z"
   id="path3" />
			<path
   d="M341.33,277.333c-11.782,0-21.333,9.551-21.333,21.333V320c0,11.782,9.551,21.333,21.333,21.333     c11.782,0,21.333-9.551,21.333-21.333v-21.333C362.663,286.885,353.112,277.333,341.33,277.333z"
   id="path4" />
			<path
   d="M250.815,110.321c8.331,8.331,21.839,8.331,30.17,0c8.331-8.331,8.331-21.839,0-30.17l-30.165-30.165     c-8.331-8.331-21.839-8.331-30.17,0c-8.331,8.331-8.331,21.839,0,30.17L250.815,110.321z"
   id="path5" />
			<path
   d="M431.839,231.006c-8.331-8.331-21.839-8.331-30.17,0c-8.331,8.331-8.331,21.839,0,30.17l30.165,30.165     c8.331,8.331,21.839,8.331,30.17,0s8.331-21.839,0-30.17L431.839,231.006z"
   id="path6" />
			<path
   d="M431.845,110.321l30.165-30.165c8.331-8.331,8.331-21.839,0-30.17c-8.331-8.331-21.839-8.331-30.17,0l-30.165,30.165     c-8.331,8.331-8.331,21.839,0,30.17S423.514,118.652,431.845,110.321z"
   id="path7" />
		</g>
	</g>
</g>
<path
   style="fill:#2066ff;stroke-width:3.38983;fill-opacity:1"
   d="M 46.754078,753.24593 C 5.7718169,712.26366 3.3898305,709.14312 3.3898305,696.43593 c 0,-13.2903 2.9691417,-16.41393 256.8320295,-270.19508 252.46024,-252.37893 257.05733,-256.74932 270.06716,-256.74932 12.43935,0 15.85013,2.615 56.72729,43.49216 40.87715,40.87716 43.49216,44.28794 43.49216,56.72729 0,13.00983 -4.3704,17.60693 -256.74932,270.06716 C 119.978,793.64102 116.85437,796.61017 103.56407,796.61017 c -12.707175,0 -15.827731,-2.382 -56.809992,-43.36424 z M 424.59898,375.42657 412.03837,362.56334 245.06651,529.50966 78.094647,696.45597 90.655254,709.31919 103.21586,722.18241 270.18773,555.2361 437.15959,388.2898 Z m 95.00295,-69.6025 36.43549,-36.5488 -12.86427,-12.56162 -12.86427,-12.56162 -37.06732,37.18261 -37.06732,37.18261 11.56091,11.92781 c 6.35848,6.5603 12.43173,11.92782 13.4961,11.92782 1.06438,0 18.33119,-16.44696 38.37068,-36.54881 z"
   id="path9"
   transform="scale(0.64)" /><path
   style="fill:#2066ff;fill-opacity:1;stroke-width:3.38983"
   d="M 93.153827,791.5578 C 80.330288,785.94912 11.607003,716.49627 7.2126129,704.70424 4.6232803,697.75593 5.3805786,693.37627 10.729471,684.36525 20.103591,668.57312 507.61953,181.73185 520.63224,175.1681 c 14.73878,-7.43438 22.75156,-2.58506 64.87922,39.26487 41.30193,41.02965 46.78759,50.11658 39.26946,65.0496 -6.78723,13.48128 -497.88154,504.65099 -511.28811,511.36662 -8.63034,4.32308 -11.8208,4.43423 -20.338983,0.70861 z M 272.02106,556.79264 c 90.89691,-90.8827 165.26708,-166.69991 165.26708,-168.48269 0,-4.45806 -20.83475,-25.59809 -25.22841,-25.59809 -4.44753,0 -334.093628,329.28133 -334.093628,333.72397 0,4.45803 20.834732,25.59807 25.228408,25.59807 1.9577,0 77.92965,-74.35858 168.82655,-165.24126 z M 521.12858,307.68768 c 19.142,-19.07685 34.80362,-36.16525 34.80362,-37.97421 0,-4.53307 -20.82725,-25.64567 -25.29905,-25.64567 -1.99657,0 -20.32932,16.75112 -40.73942,37.22472 l -37.10932,37.22473 11.56091,11.92781 c 6.35848,6.5603 13.90509,11.92782 16.77024,11.92782 2.86515,0 20.87098,-15.60834 40.01302,-34.6852 z"
   id="path10"
   transform="scale(0.64)" /><path
   style="fill:#5c20ff;fill-opacity:1;stroke-width:3.38983"
   d=""
   id="path11"
   transform="scale(0.64)" /><path
   style="fill:#4020ff;fill-opacity:1;stroke-width:3.38983"
   d="M 93.153827,791.5578 C 80.330288,785.94912 11.607003,716.49627 7.2126129,704.70424 4.6232803,697.75593 5.3805786,693.37627 10.729471,684.36525 20.103591,668.57312 507.61953,181.73185 520.63224,175.1681 c 14.73878,-7.43438 22.75156,-2.58506 64.87922,39.26487 41.30193,41.02965 46.78759,50.11658 39.26946,65.0496 -6.78723,13.48128 -497.88154,504.65099 -511.28811,511.36662 -8.63034,4.32308 -11.8208,4.43423 -20.338983,0.70861 z M 272.02106,556.79264 c 90.89691,-90.8827 165.26708,-166.69991 165.26708,-168.48269 0,-4.45806 -20.83475,-25.59809 -25.22841,-25.59809 -4.44753,0 -334.093628,329.28133 -334.093628,333.72397 0,4.45803 20.834732,25.59807 25.228408,25.59807 1.9577,0 77.92965,-74.35858 168.82655,-165.24126 z M 520.55112,307.94972 c 19.45959,-18.93274 35.38108,-36.02114 35.38108,-37.97421 0,-4.7264 -20.68369,-25.90771 -25.29905,-25.90771 -1.99657,0 -20.32932,16.75112 -40.73942,37.22472 l -37.10932,37.22473 11.56091,11.92781 c 6.35848,6.5603 13.64526,11.92782 16.19282,11.92782 2.54752,0 20.55339,-15.49042 40.01298,-34.42316 z"
   id="path12"
   transform="scale(0.64)" /><path
   style="fill:#2420ff;fill-opacity:1;stroke-width:3.38983"
   d="M 89.830508,786.93481 C 72.937003,776.53546 6.779661,705.78858 6.779661,698.12247 c 0,-4.22684 17.050937,-25.08939 43.625888,-53.37813 C 106.11145,585.44603 508.28203,185.5544 519.80661,178.00321 c 5.5958,-3.66651 11.3758,-4.82688 16.28393,-3.26909 9.44048,2.99628 75.20465,66.56492 84.61332,81.78849 4.39929,7.11818 6.08363,13.75685 4.64241,18.29767 -2.4998,7.87616 -365.874,374.97975 -458.19967,462.90226 -32.05242,30.5238 -60.27276,55.4921 -62.71186,55.48512 -2.43911,-0.007 -9.011011,-2.82973 -14.604232,-6.27285 z M 272.70729,557.54041 c 90.51946,-90.47142 164.58085,-166.58129 164.58085,-169.13304 0,-6.48498 -18.57577,-25.69551 -24.84645,-25.69551 -6.53755,0 -334.475588,326.93661 -334.475588,333.45421 0,6.65468 18.505261,25.86783 24.914778,25.86783 2.88506,0 79.30694,-74.02207 169.82641,-164.49349 z M 509.13908,320.69084 c 24.84784,-21.75962 46.79312,-46.3049 46.79312,-52.33696 0,-5.22456 -19.23383,-24.28608 -24.50559,-24.28608 -2.66,0 -22.25986,16.73232 -43.55522,37.18294 l -38.71885,37.18293 12.66207,11.96961 c 6.96417,6.58328 14.89031,11.9696 17.61366,11.9696 2.72339,0 16.09326,-9.75691 29.71081,-21.68204 z"
   id="path13"
   transform="scale(0.64)" /><path
   style="fill:#2420ff;fill-opacity:1;stroke-width:3.38983"
   d=""
   id="path14"
   transform="scale(0.64)" /><path
   style="fill:#2420ff;fill-opacity:1;stroke-width:3.38983"
   d=""
   id="path15"
   transform="scale(0.64)" /><path
   style="fill:#2420ff;fill-opacity:1;stroke-width:3.38983"
   d="m 683.05085,458.06032 c -5.59322,-3.47662 -21.99153,-18.54998 -36.44068,-33.49636 -22.75706,-23.54018 -26.27119,-28.78904 -26.27119,-39.23989 0,-18.28066 12.41633,-30.9327 30.35643,-30.9327 13.36543,0 15.85126,1.74982 46.12248,32.46651 27.03568,27.43353 31.99567,34.15618 31.99567,43.36615 0,14.46384 -4.87297,22.85317 -16.8813,29.06292 -12.76163,6.59929 -16.54982,6.4384 -28.88141,-1.22663 z"
   id="path16"
   transform="scale(0.64)" /><path
   style="fill:#2420ff;fill-opacity:1;stroke-width:3.38983"
   d="m 684.36628,293.22155 c -18.31771,-9.95549 -20.36505,-34.43369 -4.15517,-49.67975 7.67179,-7.21564 12.04653,-8.05424 47.44327,-9.09444 53.92844,-1.58479 68.95579,5.78162 68.95579,33.80218 0,9.80086 -2.25451,14.40077 -10.42958,21.27963 -9.99453,8.40984 -12.15088,8.77025 -51.69491,8.64019 -29.00195,-0.0954 -43.89662,-1.56579 -50.1194,-4.94781 z"
   id="path17"
   transform="scale(0.64)" /><path
   style="fill:#2420ff;fill-opacity:1;stroke-width:3.38983"
   d=""
   id="path18"
   transform="scale(0.64)" /><path
   style="fill:#2420ff;fill-opacity:1;stroke-width:3.38983"
   d="m 630.24772,169.75228 c -11.4651,-11.46509 -12.83659,-24.62058 -3.9542,-37.92908 3.25043,-4.87012 17.62727,-20.50571 31.94855,-34.745762 23.59112,-23.457325 27.29161,-25.890997 39.36826,-25.890997 18.2793,0 31.20323,12.776261 31.20323,30.846699 0,11.23153 -2.8441,16.02142 -21.18644,35.68112 -40.33591,43.23288 -58.61592,50.8015 -77.3794,32.03802 z"
   id="path19"
   transform="scale(0.64)" /><path
   style="fill:#2420ff;fill-opacity:1;stroke-width:3.38983"
   d="m 519.01719,127.61079 c -14.38766,-8.21942 -17.07355,-17.91496 -17.20215,-62.096468 -0.11508,-39.533101 0.24827,-41.70315 8.65579,-51.694914 6.87887,-8.1750731 11.47877,-10.4295775 21.27963,-10.4295775 28.04842,0 35.38531,15.0094845 33.80218,69.1509965 -1.06784,36.519103 -1.7229,39.763503 -9.62044,47.647963 -10.45352,10.43621 -26.1238,13.58682 -36.91501,7.422 z"
   id="path20"
   transform="scale(0.64)" /><path
   style="fill:#2420ff;fill-opacity:1;stroke-width:3.38983"
   d=""
   id="path21"
   transform="scale(0.64)" /><path
   style="fill:#2420ff;fill-opacity:1;stroke-width:3.38983"
   d=""
   id="path22"
   transform="scale(0.64)" /><path
   style="fill:#2420ff;fill-opacity:1;stroke-width:3.38983"
   d="m 372.70913,150.49262 c -34.21659,-33.48273 -40.04463,-43.71286 -33.67016,-59.102203 5.56605,-13.437631 15.61953,-20.203976 30.01919,-20.203976 10.11635,0 15.81248,4.134191 44.08396,31.995669 30.71669,30.27122 32.46651,32.75705 32.46651,46.12248 0,17.96148 -12.64953,30.35643 -30.97992,30.35643 -10.64148,0 -15.7306,-3.5411 -41.91958,-29.1684 z"
   id="path23"
   transform="scale(0.64)" /><path
   style="fill:#2420ff;fill-opacity:1;stroke-width:3.38983"
   d="m 519.01719,527.61079 c -12.71738,-7.26522 -17.07182,-18.74581 -17.20215,-45.35392 -0.10925,-22.30295 0.76155,-25.50956 9.61986,-35.42373 12.92871,-14.46974 30.2809,-15.13275 43.7423,-1.67135 8.59066,8.59066 9.22958,11.21354 9.22958,37.88906 0,26.05168 -0.77112,29.43013 -8.47458,37.12898 -10.45001,10.44376 -26.11979,13.59808 -36.91501,7.43096 z"
   id="path24"
   transform="scale(0.64)" /><path
   style="fill:#3057ff;fill-opacity:1;stroke-width:3.38983"
   d="m 519.4202,526.54477 c -8.76447,-3.52636 -14.33545,-21.12338 -14.33545,-45.28125 0,-22.18108 0.81083,-24.96874 9.90873,-34.06665 12.85761,-12.8576 24.95205,-12.8576 37.80965,0 9.22562,9.22562 9.90873,11.69743 9.90873,35.85398 0,24.15654 -0.68311,26.62836 -9.90873,35.85397 -9.45773,9.45773 -21.82844,12.28886 -33.38293,7.63995 z"
   id="path25"
   transform="scale(0.64)" /><path
   style="fill:#3057ff;fill-opacity:1;stroke-width:3.38983"
   d="M 91.265929,785.86431 C 77.974251,777.86936 20.837633,719.36237 12.442249,705.15014 L 6.8390234,695.66461 31.703867,667.32383 C 57.256183,638.19949 220.38376,473.96602 412.54756,283.89831 496.95498,200.4116 523.26115,176.27119 529.83054,176.27119 c 15.468,0 93.89827,77.55877 93.89827,92.85492 0,6.32536 -28.21003,36.97082 -119.49152,129.80746 -65.72034,66.84 -132.45763,134.9707 -148.30509,151.40158 -42.6321,44.2016 -231.81559,227.38119 -243.22242,235.50356 l -9.83894,7.00597 z M 272.94258,557.93078 c 90.39006,-90.25673 164.34556,-166.64525 164.34556,-169.75229 0,-6.37904 -17.75895,-25.46663 -23.69394,-25.46663 -10.0523,0 -335.628098,324.6916 -335.628098,334.71658 0,6.52485 18.535267,24.60546 25.224198,24.60546 2.9737,0 79.36223,-73.84641 169.75228,-164.10312 z M 502.69529,327.24504 c 22.42552,-18.26771 53.23691,-52.23566 53.23691,-58.69094 0,-6.20367 -18.49393,-24.4863 -24.76928,-24.4863 -2.7235,0 -22.29,16.74012 -43.48109,37.20027 l -38.52929,37.20027 12.66207,11.95227 c 6.96417,6.57375 14.83281,11.95227 17.4859,11.95227 2.65308,0 13.18074,-6.80753 23.39478,-15.12784 z"
   id="path26"
   transform="scale(0.64)" /><path
   style="fill:#3057ff;fill-opacity:1;stroke-width:3.38983"
   d=""
   id="path27"
   transform="scale(0.64)" /><path
   style="fill:#3057ff;fill-opacity:1;stroke-width:3.38983"
   d=""
   id="path28"
   transform="scale(0.64)" /><path
   style="fill:#3057ff;fill-opacity:1;stroke-width:3.38983"
   d=""
   id="path29"
   transform="scale(0.64)" /><path
   style="fill:#3057ff;fill-opacity:1;stroke-width:3.38983"
   d="m 655.45415,429.29161 c -28.56608,-28.56608 -31.72534,-32.96976 -31.72534,-44.22188 0,-16.34019 12.18079,-29.13753 27.73376,-29.13753 9.51256,0 15.57067,4.53648 42.52696,31.84531 29.19223,29.57402 31.4342,32.82039 31.4342,45.51668 0,10.73187 -1.92042,15.18197 -8.93173,20.69706 -17.41913,13.7019 -26.18252,10.15569 -61.03785,-24.69964 z"
   id="path30"
   transform="scale(0.64)" /><path
   style="fill:#3057ff;fill-opacity:1;stroke-width:3.38983"
   d="m 688.04239,455.44723 c -13.37421,-8.88763 -54.21497,-49.54741 -59.1601,-58.89793 -9.29563,-17.57671 2.73858,-38.35721 22.21307,-38.35721 8.3562,0 15.51945,5.1275 37.49076,26.83616 30.72271,30.35543 37.9514,41.55718 34.83368,53.97916 -2.19263,8.73613 -16.13736,22.00954 -23.12269,22.00954 -2.13034,0 -7.64496,-2.50637 -12.25472,-5.56972 z"
   id="path31"
   transform="scale(0.64)" /><path
   style="fill:#3057ff;fill-opacity:1;stroke-width:3.38983"
   d="m 523.08539,525.1493 c -11.2593,-4.16509 -15.60676,-15.74844 -15.97264,-42.55748 -0.29228,-21.41635 0.67366,-25.47863 7.88492,-33.16005 11.03125,-11.75045 26.76565,-11.75301 37.80127,-0.006 7.15114,7.61205 8.21801,11.96654 8.21801,33.54241 0,19.35349 -1.37406,26.31306 -6.26131,31.71341 -8.28413,9.15387 -22.51079,13.85615 -31.67025,10.46784 z"
   id="path32"
   transform="scale(0.64)" /><path
   style="fill:#3057ff;fill-opacity:1;stroke-width:3.38983"
   d="m 522.79474,525.04178 c -10.96688,-4.05691 -15.31879,-15.8372 -15.68199,-42.44996 -0.29228,-21.41635 0.67366,-25.47863 7.88492,-33.16005 11.03125,-11.75045 26.76565,-11.75301 37.80127,-0.006 7.15629,7.61753 8.21801,11.96171 8.21801,33.62521 0,21.38346 -1.10884,26.05783 -7.89484,33.28121 -8.89007,9.46303 -19.81185,12.59967 -30.32737,8.70972 z"
   id="path33"
   transform="scale(0.64)" /><path
   style="fill:#3057ff;fill-opacity:1;stroke-width:3.38983"
   d=""
   id="path34"
   transform="scale(0.64)" /><path
   style="fill:#3057ff;fill-opacity:1;stroke-width:3.38983"
   d=""
   id="path35"
   transform="scale(0.64)" /><path
   style="fill:#3057ff;fill-opacity:1;stroke-width:3.38983"
   d=""
   id="path36"
   transform="scale(0.64)" /><path
   style="fill:#3057ff;fill-opacity:1;stroke-width:3.38983"
   d="m 632.04931,167.95069 c -14.79096,-14.79095 -11.65095,-27.2804 13.89596,-55.27145 12.21905,-13.388088 26.88379,-27.665414 32.58832,-31.727392 21.28979,-15.159673 46.89014,-3.617582 46.89014,21.140742 0,10.84672 -2.94236,15.95966 -19.49153,33.87044 -37.03518,40.08234 -57.10079,48.76976 -73.88289,31.98766 z"
   id="path37"
   transform="scale(0.64)" /><path
   style="fill:#3057ff;fill-opacity:1;stroke-width:3.38983"
   d="m 630.5629,163.70604 c -8.73741,-11.10782 -7.04918,-20.89307 6.57,-38.08071 16.05497,-20.26164 46.36719,-47.217419 55.74296,-49.570586 18.34595,-4.60454 35.79676,16.514171 28.88998,34.962206 -4.13988,11.0576 -41.58926,50.14147 -54.64835,57.03349 -14.68293,7.74901 -28.31644,6.12871 -36.55459,-4.3444 z"
   id="path38"
   transform="scale(0.64)" /><path
   style="fill:#3057ff;fill-opacity:1;stroke-width:3.38983"
   d="m 685.81482,291.50176 c -17.18515,-6.92405 -19.44695,-29.57758 -4.45043,-44.57411 l 10.17796,-10.17795 43.71439,1.11667 c 51.76601,1.32236 57.9636,4.37121 57.9636,28.51467 0,11.6085 -1.77263,15.87717 -8.93173,21.50852 -7.96095,6.26209 -13.39534,7.00234 -50,6.81083 -22.58755,-0.11818 -44.40075,-1.55756 -48.47379,-3.19863 z"
   id="path39"
   transform="scale(0.64)" /><path
   style="fill:#3057ff;fill-opacity:1;stroke-width:3.38983"
   d="m 733.11536,238.32885 c 3.2982,-0.85947 7.87447,-0.80295 10.16949,0.1256 2.29503,0.92855 -0.40349,1.63176 -5.99671,1.56267 -5.59322,-0.0691 -7.47097,-0.82881 -4.17278,-1.68827 z"
   id="path40"
   transform="scale(0.64)" /><path
   style="fill:#3057ff;fill-opacity:1;stroke-width:3.38983"
   d="m 706.05348,292.61846 c -17.87873,-1.19693 -22.13803,-2.77417 -28.15771,-10.42696 -8.61897,-10.95724 -6.71683,-22.17927 6.03106,-35.58133 7.81388,-8.21486 11.30799,-9.30435 29.41924,-9.17318 28.68712,0.20778 69.71998,5.29008 73.53831,9.10841 1.75575,1.75575 4.0559,8.51419 5.11145,15.01875 1.51176,9.31588 0.22631,13.76008 -6.05528,20.93499 -7.08247,8.08969 -10.81822,9.24393 -33.39818,10.31904 -13.98305,0.66579 -34.90305,0.57591 -46.48889,-0.19972 z"
   id="path41"
   transform="scale(0.64)" /><path
   style="fill:#3057ff;fill-opacity:1;stroke-width:3.38983"
   d="m 704.35297,292.61916 c -16.01105,-1.17767 -20.60655,-2.98976 -26.46279,-10.43477 -8.61319,-10.94989 -6.70835,-22.17519 6.03665,-35.57422 7.81388,-8.21486 11.30799,-9.30435 29.41924,-9.17318 28.68712,0.20778 69.71998,5.29008 73.53831,9.10841 1.75575,1.75575 4.0559,8.51419 5.11145,15.01875 1.51353,9.32682 0.23369,13.73365 -6.05528,20.84985 -7.1392,8.07826 -10.81488,9.1599 -35.09309,10.32685 -14.91526,0.71691 -35.83778,0.66215 -46.49449,-0.12169 z"
   id="path42"
   transform="scale(0.64)" /><path
   style="fill:#3057ff;fill-opacity:1;stroke-width:3.38983"
   d=""
   id="path43"
   transform="scale(0.64)" /><path
   style="fill:#3057ff;fill-opacity:1;stroke-width:3.38983"
   d=""
   id="path44"
   transform="scale(0.64)" /><path
   style="fill:#3057ff;fill-opacity:1;stroke-width:3.38983"
   d="m 519.4202,126.54477 c -10.44969,-4.20441 -14.33545,-20.87795 -14.33545,-61.512502 0,-35.727756 0.81085,-41.419988 7.02569,-49.320883 5.63135,-7.1590962 9.90002,-8.931724 21.50852,-8.931724 24.14346,0 27.19231,6.197593 28.51467,57.9636 l 1.11667,43.714389 -10.17795,10.17795 c -9.72558,9.72558 -21.97956,12.6056 -33.65215,7.90917 z"
   id="path45"
   transform="scale(0.64)" /><path
   style="fill:#3057ff;fill-opacity:1;stroke-width:3.38983"
   d="m 523.10296,125.18223 c -12.44248,-4.64718 -15.29275,-15.27284 -15.82184,-58.982881 -0.38604,-31.892772 0.63679,-42.799513 4.44397,-47.387116 12.22876,-14.7354974 37.95527,-14.1161577 43.68263,1.051614 1.85867,4.922342 4.30632,26.56635 5.43921,48.097794 1.98283,37.685299 1.77116,39.418469 -5.66475,46.384369 -10.54723,9.88054 -23.19713,14.15362 -32.07922,10.83622 z"
   id="path46"
   transform="scale(0.64)" /><path
   style="fill:#3057ff;fill-opacity:1;stroke-width:3.38983"
   d="m 523.10296,125.18223 c -12.38967,-4.62746 -15.22018,-15.19017 -15.78619,-58.909932 -0.57814,-44.657921 1.19238,-50.316302 17.70908,-56.5959404 12.87515,-4.8951198 26.33406,-0.4618844 30.39586,10.0120964 1.94628,5.018808 4.53027,26.667478 5.74218,48.108156 2.14263,37.90626 1.98376,39.18749 -5.75138,46.38437 -10.79755,10.04616 -23.38832,14.33326 -32.30955,11.00125 z"
   id="path47"
   transform="scale(0.64)" /><path
   style="fill:#3057ff;fill-opacity:1;stroke-width:3.38983"
   d="m 375.94638,150.12286 c -38.64189,-36.91824 -44.70957,-51.159364 -28.64284,-67.226096 5.79556,-5.79556 12.07629,-8.320493 20.69707,-8.320493 11.06298,0 15.75648,3.336276 44.22188,31.434199 27.30883,26.95629 31.84531,33.0144 31.84531,42.52696 0,15.34902 -12.81472,27.73376 -28.69663,27.73376 -10.40699,0 -15.79848,-3.57588 -39.42479,-26.14833 z"
   id="path48"
   transform="scale(0.64)" /><path
   style="fill:#3057ff;fill-opacity:1;stroke-width:3.38983"
   d=""
   id="path49"
   transform="scale(0.64)" /><path
   style="fill:#3057ff;fill-opacity:1;stroke-width:3.38983"
   d=""
   id="path50"
   transform="scale(0.64)" /></svg>
