<?xml version="1.0" encoding="UTF-8" standalone="no"?>
<!-- Uploaded to: SVG Repo, www.svgrepo.com, Generator: SVG Repo Mixer Tools -->

<svg
   fill="#000000"
   width="800px"
   height="800px"
   viewBox="0 0 24 24"
   version="1.1"
   id="svg1"
   sodipodi:docname="settings_hover.svg"
   inkscape:version="1.3.2 (091e20e, 2023-11-25)"
   xmlns:inkscape="http://www.inkscape.org/namespaces/inkscape"
   xmlns:sodipodi="http://sodipodi.sourceforge.net/DTD/sodipodi-0.dtd"
   xmlns="http://www.w3.org/2000/svg"
   xmlns:svg="http://www.w3.org/2000/svg">
  <defs
     id="defs1" />
  <sodipodi:namedview
     id="namedview1"
     pagecolor="#ffffff"
     bordercolor="#000000"
     borderopacity="0.25"
     inkscape:showpageshadow="2"
     inkscape:pageopacity="0.0"
     inkscape:pagecheckerboard="0"
     inkscape:deskcolor="#d1d1d1"
     inkscape:zoom="0.295"
     inkscape:cx="398.30508"
     inkscape:cy="400"
     inkscape:window-width="1312"
     inkscape:window-height="449"
     inkscape:window-x="0"
     inkscape:window-y="44"
     inkscape:window-maximized="0"
     inkscape:current-layer="svg1" />
  <path
     d="M12,16a4,4,0,1,0-4-4A4,4,0,0,0,12,16Zm0-6a2,2,0,1,1-2,2A2,2,0,0,1,12,10ZM3.5,12.877l-1,.579a2,2,0,0,0-.733,2.732l1.489,2.578A2,2,0,0,0,5.99,19.5L7,18.916a1.006,1.006,0,0,1,1.008.011.992.992,0,0,1,.495.857V21a2,2,0,0,0,2,2h3a2,2,0,0,0,2-2V19.782a1.009,1.009,0,0,1,1.5-.866l1.009.582a2,2,0,0,0,2.732-.732l1.488-2.578a2,2,0,0,0-.733-2.732l-1-.579a1.007,1.007,0,0,1-.5-.89,1,1,0,0,1,.5-.864l1-.579a2,2,0,0,0,.733-2.732L20.742,5.234A2,2,0,0,0,18.01,4.5L17,5.083a1.008,1.008,0,0,1-1.5-.867V3a2,2,0,0,0-2-2h-3a2,2,0,0,0-2,2V4.294a.854.854,0,0,1-.428.74l-.154.089a.864.864,0,0,1-.854,0L5.99,4.5a2,2,0,0,0-2.733.732L1.769,7.813A2,2,0,0,0,2.5,10.544l1,.578a1.011,1.011,0,0,1,.5.891A.994.994,0,0,1,3.5,12.877Zm1-3.487-1-.578L4.99,6.234l1.074.62a2.86,2.86,0,0,0,2.85,0l.154-.088A2.863,2.863,0,0,0,10.5,4.294V3h3V4.216a3.008,3.008,0,0,0,4.5,2.6l1.007-.582L20.5,8.812l-1,.578a3.024,3.024,0,0,0,0,5.219l1,.579h0l-1.488,2.578L18,17.184a3.008,3.008,0,0,0-4.5,2.6V21h-3V19.784a3.006,3.006,0,0,0-4.5-2.6l-1.007.582L3.5,15.188l1-.579a3.024,3.024,0,0,0,0-5.219Z"
     id="path1"
     style="fill:#0000ff" />
</svg>
