<?xml version="1.0" encoding="utf-8"?>
<svg xmlns="http://www.w3.org/2000/svg" viewBox="0 0 500 500">
  <defs>
    <linearGradient id="color-1" gradientUnits="userSpaceOnUse">
      <stop style="stop-color: rgb(32, 88, 255);" />
    </linearGradient>
  </defs>
  <path opacity="1.0" d="M 75.547 449.87 C 73.398 443.219 72.038 436.734 72.049 429.933 C 72.119 386.923 72.088 343.912 72.088 300.901 C 72.088 239.354 72.211 177.806 72 116.26 C 71.946 100.989 77.37 88.402 87.268 77.084 C 100.072 62.44 113.499 48.421 127.407 34.841 C 129.721 32.585 131.768 30.052 133.893 27.608 C 140.991 19.449 149.968 15.434 160.745 15.413 C 190.909 15.357 221.072 15.32 251.236 15.28 C 252.686 15.277 254.272 15.12 255.132 16.623 C 256.055 18.235 255.235 19.722 254.282 20.957 C 251.459 24.605 249.357 28.69 247.308 32.765 C 246.116 35.136 244.704 35.872 242.136 35.862 C 217.224 35.776 192.312 35.81 167.4 35.814 C 162.146 35.814 161.953 36.081 162.684 41.394 C 162.896 42.937 162.994 44.509 163 46.066 C 163.032 57.35 163.077 68.633 163.017 79.915 C 162.966 89.065 159.145 96.014 150.828 100.281 C 145.278 103.129 139.468 104.912 133.187 104.834 C 121.018 104.684 108.833 105.386 96.682 104.289 C 93.993 104.048 93.399 105.488 93.375 107.688 C 93.314 113.273 93.215 118.858 93.166 124.442 C 93.007 142.201 92.743 159.958 92.744 177.717 C 92.745 201.499 93.298 225.283 93.003 249.06 C 92.429 295.417 92.776 341.775 92.807 388.132 C 92.818 402.759 92.976 417.391 93.094 432.021 C 93.226 448.48 108.068 464.008 125.068 463.946 C 195.669 463.684 266.272 463.794 336.874 463.759 C 341.737 463.757 341.653 463.727 341.645 458.933 C 341.616 443.741 341.468 428.545 341.717 413.356 C 342.035 393.902 356.038 380.146 375.51 380.065 C 388.909 380.011 402.31 380.327 415.711 380.465 C 416.36 380.471 417.012 380.351 417.987 380.259 C 417.987 377.371 418.059 374.613 417.976 371.861 C 417.164 345.282 417.461 318.694 417.759 292.117 C 417.903 279.27 417.49 266.439 417.628 253.6 C 417.785 238.88 417.97 224.158 417.908 209.437 C 417.854 196.261 417.5 183.085 417.227 169.91 C 417.198 168.514 417.129 167.222 418.41 166.308 C 426.146 160.786 429.283 152.059 433.795 144.282 C 434.57 142.944 434.584 140.363 436.688 140.774 C 438.973 141.22 439.199 143.678 439.236 145.703 C 439.322 150.393 439.292 155.087 439.292 159.778 C 439.298 199.548 439.273 239.318 439.319 279.088 C 439.335 295.046 439.838 311.012 439.513 326.961 C 439.202 342.27 439.418 357.574 439.95 372.847 C 440.7 394.382 432.847 412.127 418.734 427.856 C 407.016 440.914 394.562 453.257 382.394 465.863 C 370.836 477.836 356.25 484.228 339.256 484.231 C 268.429 484.242 197.602 484.018 126.778 484.433 C 104.925 484.562 83.232 470.888 75.547 449.87 Z" style="opacity: 0.9; stroke: rgb(85, 106, 218); fill: url(#color-1);" id="object-0"/>
  <path opacity="1.0" d="M 172.457 322.101 C 186.359 302.513 200.3 283.242 213.838 263.695 C 231.511 238.179 249.722 213.043 267.482 187.591 C 279.62 170.196 291.697 152.76 304.178 135.608 C 306.467 132.461 309.195 129.622 311.83 126.741 C 313.633 124.769 315.912 123.689 318.689 123.843 C 322.507 124.055 323.678 125.835 322.182 129.373 C 319.734 135.163 316.109 140.3 312.947 145.685 C 303.73 161.376 294.544 177.09 285.008 192.587 C 274.887 209.036 264.311 225.204 254.052 241.573 C 240.77 262.76 227.655 284.051 214.756 305.478 C 202.034 326.613 188.879 347.487 175.971 368.509 C 175.007 370.081 174.038 370.491 172.446 369.651 C 165.631 366.057 158.748 362.574 152.799 357.577 C 150.632 355.758 149.773 353.639 151.806 351.208 C 159.414 342.115 165.388 331.868 172.457 322.101 Z" style="opacity: 0.9; stroke: rgb(85, 106, 218); fill: url(#color-1);" id="object-1"/>
  <path opacity="1.0" d="M 226.69 327.716 C 241.57 327.092 256.193 327.058 270.814 327.043 C 305.443 327.011 340.072 327.017 374.702 327.011 C 376.039 327.01 377.362 327 378.67 327.458 C 383.344 329.093 386.265 333.129 385.684 337.246 C 384.972 342.287 380.661 346.18 375.552 346.175 C 355.893 346.161 336.228 346.304 316.574 345.935 C 307.083 345.756 297.612 345.824 288.125 345.884 C 265.131 346.029 242.134 345.695 219.139 345.531 C 215.59 345.505 214.784 344.46 216.749 341.652 C 219.985 337.03 222.093 331.61 226.69 327.716 Z" style="opacity: 0.9; stroke: rgb(85, 106, 218); fill: url(#color-1);" id="object-2"/>
  <path opacity="1.0" d="M 266.075 404.074 C 281.598 403.894 296.792 404.458 311.979 403.754 C 317.159 403.513 320.104 406.107 320.839 411.262 C 321.556 416.293 318.65 421.191 314.24 422.209 C 312.952 422.506 311.589 422.581 310.26 422.581 C 267.023 422.593 223.788 422.571 180.553 422.595 C 176.553 422.597 172.971 422.047 170.894 418.033 C 170.153 416.6 169.994 415.337 171.013 413.991 C 173.102 411.232 175.146 408.442 177.213 405.666 C 178.773 403.573 181.086 403.619 183.303 403.68 C 210.779 404.433 238.262 403.86 266.075 404.074 Z" style="opacity: 0.9; stroke: rgb(85, 106, 218); fill: url(#color-1);" id="object-3"/>
  <path opacity="1.0" d="M 350.807 116.232 C 349.605 120.915 348.523 125.353 347.266 129.74 C 346.663 131.839 346.155 134.118 343.257 134.46 C 340.212 134.819 339.057 132.833 338.178 130.585 C 336.15 125.401 334.391 120.108 332.236 114.979 C 330.023 109.709 329.676 109.665 324.209 111.101 C 318.718 112.541 313.27 114.187 307.59 114.737 C 305.855 114.906 303.862 115.454 302.651 113.649 C 301.319 111.664 302.735 110.027 303.791 108.493 C 306.451 104.633 309.062 100.728 311.947 97.04 C 313.556 94.984 313.41 93.558 311.483 91.983 C 308.603 89.627 306.461 86.612 304.304 83.626 C 303.326 82.274 302.159 80.833 303.146 79.056 C 304.046 77.433 305.739 77.053 307.467 76.969 C 313.503 76.677 319.538 76.994 325.479 77.924 C 328.244 78.354 329.126 77.294 329.779 75.135 C 331.364 69.9 333.237 64.771 335.642 59.849 C 336.856 57.364 338.299 54.856 341.471 55.14 C 344.525 55.412 345.884 57.919 346.73 60.58 C 348.316 65.566 350.314 70.453 351.148 75.638 C 351.593 78.408 353.009 79.43 355.622 79.452 C 360.197 79.49 364.78 79.465 369.342 79.75 C 372.231 79.931 375.894 79.447 376.901 83.23 C 377.88 86.905 374.954 88.943 372.408 90.708 C 369.465 92.749 366.453 94.597 364.423 97.704 C 363.866 98.556 362.717 99.22 361.704 99.541 C 355.835 101.403 353.572 106.084 352.114 111.453 C 351.705 112.96 351.274 114.461 350.807 116.232 Z" style="opacity: 0.9; stroke: rgb(85, 106, 218); fill: url(#color-1);" id="object-4"/>
  <path opacity="1.0" d="M 246.634 365.931 C 268.189 365.958 289.408 365.92 310.628 366.046 C 316.869 366.083 323.104 366.682 329.346 365.948 C 330.885 365.767 332.447 365.854 333.987 366.335 C 337.73 367.504 338.491 369.936 335.677 372.667 C 332.431 375.815 329.734 379.339 327.638 383.308 C 326.59 385.289 325.304 385.991 323.048 385.468 C 319.113 384.559 315.095 384.932 311.084 384.936 C 272.89 384.969 234.696 384.882 196.502 384.808 C 194.642 384.805 192.724 384.892 190.757 383.634 C 191.869 380.312 194.013 377.554 195.817 374.705 C 202.258 364.532 198.761 366.149 210.784 366.068 C 222.623 365.986 234.461 365.974 246.634 365.931 Z" style="opacity: 0.9; stroke: rgb(85, 106, 218); fill: url(#color-1);" id="object-5"/>
  <path opacity="1.0" d="M 266.423 136.963 C 272.241 137.857 273.039 139.823 269.659 144.198 C 267.272 147.286 264.863 150.362 262.563 153.515 C 261.759 154.617 260.865 155.135 259.513 155.188 C 255.836 155.334 252.162 155.753 248.486 155.758 C 212.192 155.803 175.898 155.793 139.603 155.783 C 135.969 155.783 132.352 155.534 130.015 152.175 C 128.224 149.606 126.243 146.863 127.707 143.569 C 129.373 139.82 132.178 137.115 136.55 136.802 C 139.105 136.62 141.683 136.695 144.252 136.72 C 163.232 136.894 182.212 137.344 201.19 137.199 C 219.385 137.061 237.576 137.211 255.767 137.267 C 259.222 137.279 262.677 137.049 266.423 136.963 Z" style="opacity: 0.9; stroke: rgb(85, 106, 218); fill: url(#color-1);" id="object-6"/>
  <path opacity="1.0" d="M 244.847 307.215 C 243.205 307.11 241.853 307.076 240.724 306.014 C 240.558 303.868 241.948 302.302 242.976 300.636 C 244.44 298.264 246.321 296.112 247.52 293.624 C 249.263 290.008 251.877 288.79 255.797 288.796 C 295.527 288.865 335.258 288.806 374.99 288.789 C 376.434 288.789 377.871 288.752 379.275 289.306 C 383.382 290.924 386.083 294.958 385.439 298.622 C 384.612 303.323 380.636 307.111 376.066 307.262 C 371.718 307.408 367.362 307.3 363.009 307.297 C 323.725 307.274 284.44 307.25 244.847 307.215 Z" style="opacity: 0.9; stroke: rgb(85, 106, 218); fill: url(#color-1);" id="object-7"/>
  <path opacity="1.0" d="M 322.372 269.143 C 307.411 269.125 292.784 269.155 278.156 269.063 C 274.259 269.037 270.356 268.723 266.47 268.383 C 263.834 268.153 263.405 267.049 264.904 264.901 C 267.649 260.966 270.448 257.067 273.13 253.089 C 274.305 251.345 275.731 250.627 277.872 250.629 C 309.696 250.664 341.519 250.628 373.342 250.609 C 375.127 250.608 376.908 250.555 378.656 251.088 C 382.908 252.385 385.843 256.26 385.546 260.261 C 385.207 264.825 381.839 268.418 377.282 269.019 C 376.401 269.135 375.498 269.108 374.605 269.103 C 357.305 268.986 340.006 269.961 322.372 269.143 Z" style="opacity: 0.9; stroke: rgb(85, 106, 218); fill: url(#color-1);" id="object-8"/>
  <path opacity="1.0" d="M 182.951 194.036 C 167.651 194.034 152.681 193.835 137.721 194.125 C 131.378 194.249 127.803 189.605 127.294 184.195 C 126.91 180.106 131.893 175.756 137.208 175.634 C 144.463 175.47 151.725 175.622 158.984 175.64 C 174.053 175.676 189.126 175.503 204.19 175.816 C 216.694 176.075 229.195 176.229 241.702 176.156 C 243.301 176.147 244.925 176.117 245.694 177.895 C 246.404 179.534 245.31 180.761 244.361 181.766 C 240.967 185.359 238.25 189.45 235.432 193.472 C 234.711 194.502 233.963 195.434 232.474 195.248 C 222.803 194.03 213.072 194.982 203.374 194.467 C 196.689 194.113 189.982 194.166 182.951 194.036 Z" style="opacity: 0.9; stroke: rgb(85, 106, 218); fill: url(#color-1);" id="object-9"/>
  <path opacity="1.0" d="M 355.231 230.77 C 335.126 230.777 315.354 230.806 295.584 230.752 C 293.43 230.746 290.494 231.459 289.406 229.367 C 288.312 227.26 290.778 225.384 291.838 223.501 C 293.531 220.487 295.507 217.63 297.163 214.598 C 298.251 212.603 299.631 211.698 301.948 211.711 C 321.27 211.819 340.593 211.813 359.916 211.915 C 365.272 211.942 370.625 212.2 375.98 212.381 C 380.905 212.548 385.464 216.86 385.536 221.376 C 385.61 226.047 381.015 230.762 376.005 230.835 C 369.194 230.936 362.379 230.803 355.231 230.77 Z" style="opacity: 0.9; stroke: rgb(85, 106, 218); fill: url(#color-1);" id="object-10"/>
</svg>