<?xml version="1.0" encoding="UTF-8" standalone="no"?>
<!-- Uploaded to: SVG Repo, www.svgrepo.com, Generator: SVG Repo Mixer Tools -->

<svg
   width="800px"
   height="800px"
   viewBox="0 0 48 48"
   version="1.1"
   id="svg7"
   sodipodi:docname="live-transcribe-svgrepo-com.svg"
   inkscape:version="1.3.2 (091e20e, 2023-11-25)"
   xmlns:inkscape="http://www.inkscape.org/namespaces/inkscape"
   xmlns:sodipodi="http://sodipodi.sourceforge.net/DTD/sodipodi-0.dtd"
   xmlns="http://www.w3.org/2000/svg"
   xmlns:svg="http://www.w3.org/2000/svg">
  <sodipodi:namedview
     id="namedview7"
     pagecolor="#ffffff"
     bordercolor="#000000"
     borderopacity="0.25"
     inkscape:showpageshadow="2"
     inkscape:pageopacity="0.0"
     inkscape:pagecheckerboard="0"
     inkscape:deskcolor="#d1d1d1"
     inkscape:zoom="0.26107049"
     inkscape:cx="-74.692472"
     inkscape:cy="340.9041"
     inkscape:window-width="1312"
     inkscape:window-height="449"
     inkscape:window-x="0"
     inkscape:window-y="44"
     inkscape:window-maximized="0"
     inkscape:current-layer="svg7" />
  <defs
     id="defs1">
    <style
       id="style1">.a{fill:none;stroke:#000000;stroke-linecap:round;stroke-linejoin:round;}</style>
  </defs>
  <path
     class="a"
     d="M32.7554,34.8415H8.1671A2.7945,2.7945,0,0,1,5.3727,32.047V8.2944A2.7944,2.7944,0,0,1,8.1671,5.5H22.531Z"
     id="path1" />
  <path
     class="a"
     d="M25.2,13.1585H39.8329a2.7945,2.7945,0,0,1,2.7944,2.7945V39.7056A2.7944,2.7944,0,0,1,39.8329,42.5H25.469L22.8,34.8414"
     id="path2" />
  <line
     class="a"
     x1="32.7554"
     y1="34.8415"
     x2="25.469"
     y2="42.5"
     id="line2" />
  <path
     class="a"
     d="M16.0441,11.0706h0a3.96,3.96,0,0,1,3.96,3.96v4.8958a3.96,3.96,0,0,1-3.96,3.96h0a3.96,3.96,0,0,1-3.96-3.96h0V15.0307a3.96,3.96,0,0,1,3.96-3.96Z"
     id="path3" />
  <path
     class="a"
     d="M9.4018,21.1048a6.7645,6.7645,0,0,0,13.2847,0"
     id="path4" />
  <line
     class="a"
     x1="16.0441"
     y1="26.5891"
     x2="16.0441"
     y2="29.9251"
     id="line4" />
  <line
     class="a"
     x1="27.9687"
     y1="21.1048"
     x2="39.2192"
     y2="21.1048"
     id="line5" />
  <line
     class="a"
     x1="31.3835"
     y1="30.9044"
     x2="39.2192"
     y2="30.9044"
     id="line6" />
  <line
     class="a"
     x1="29.7307"
     y1="26.0046"
     x2="39.2192"
     y2="26.0046"
     id="line7" />
  <path
     style="fill:#3057ff;stroke-width:2.544;stroke-dasharray:none"
     d="m 419.53289,714.13043 c -1.1239,-1.19696 -11.64793,-29.87721 -23.38673,-63.73389 l -21.34328,-61.55761 -125.53293,-0.62179 -125.53294,-0.6218 -6.83974,-2.78921 C 103.09855,579.17906 91.114882,567.1954 85.48782,553.39667 L 82.698604,546.55694 82.369257,387.06677 82.03991,227.57661 h 7.456878 7.456878 l 0.333996,158.24658 c 0.364109,172.51284 -0.204991,159.48168 7.466118,170.95796 1.93004,2.88742 5.96526,6.93969 8.96715,9.00504 11.48157,7.89954 -0.0178,7.50789 220.44373,7.50789 130.12785,0 200.57819,-0.42795 200.57819,-1.21842 0,-0.67013 -0.81881,-3.3283 -1.81958,-5.90704 -1.00078,-2.57874 -5.4223,-15.04149 -9.82561,-27.695 C 518.69434,525.82011 492.65165,451.04636 465.22501,372.30971 437.79838,293.57308 415.3584,228.79769 415.3584,228.3644 c 0,-0.43328 3.52127,-0.78779 7.82504,-0.78779 h 7.82504 l 7.01571,20.20831 c 3.85863,11.11456 12.99932,37.41645 20.31265,58.44863 l 13.29698,38.24033 h 92.49033 c 90.83222,0 92.53491,0.0446 94.97751,2.48718 3.17127,3.17128 3.1558,6.27486 -0.0485,9.71421 l -2.53562,2.72167 h -89.4899 c -49.21943,0 -89.48989,0.44968 -89.48989,0.99929 0,0.5496 4.97026,15.23948 11.04502,32.64418 l 11.04501,31.6449 78.60366,0.6218 78.60366,0.62179 2.37684,2.93584 c 3.13993,3.8784 2.99823,5.88273 -0.67561,9.55656 l -3.05243,3.05245 h -74.67182 c -41.06949,0 -74.6718,0.44968 -74.6718,0.99929 0,0.5496 4.97032,15.23948 11.04516,32.64418 l 11.04517,31.6449 63.81302,0.32233 c 63.5085,0.32078 63.8267,0.33517 66.67909,3.01484 3.42707,3.21956 3.62944,6.03375 0.68978,9.59207 -2.15704,2.61097 -2.72185,2.63694 -63.88253,2.93584 l -61.70627,0.30157 9.78647,27.97307 c 5.38255,15.38518 9.78193,29.09574 9.77641,30.4679 -0.006,1.5818 -20.27755,23.78083 -55.38966,60.6574 l -55.37962,58.16257 116.63637,-0.33572 116.63637,-0.33572 6.74331,-3.73077 c 3.78433,-2.09369 8.83037,-6.36979 11.49958,-9.74493 9.13664,-11.55294 8.56006,4.25299 8.1979,-224.72875 l -0.32544,-205.75648 -2.61857,-5.65933 c -3.87592,-8.37676 -9.66478,-14.27882 -18.17695,-18.5324 l -7.58246,-3.789 h 14.39539 14.39539 l 3.85516,4.86754 c 2.12034,2.67714 5.38515,8.13338 7.25513,12.12498 l 3.39997,7.25745 v 212.03176 212.03175 l -3.99019,8.42386 c -4.74845,10.02464 -14.58128,20.38499 -23.76275,25.03759 -14.1279,7.15915 -9.901,6.95517 -144.12349,6.95517 -115.98841,0 -123.59964,-0.13197 -125.51918,-2.17628 z m 58.84191,-73.3717 49.47266,-51.9198 -34.48174,-0.33057 c -18.96495,-0.18181 -49.78088,-0.18181 -68.47984,0 l -33.99811,0.33057 18.10825,51.9198 c 9.95954,28.55589 18.51277,51.9198 19.00719,51.9198 0.49441,0 23.16162,-23.36391 50.37159,-51.9198 z"
     id="path7"
     transform="scale(0.06)" />
  <path
     style="fill:#3057ff;stroke-width:1.24359"
     d="m 261.96802,503.86613 c -1.77444,-1.96074 -2.05812,-5.79375 -2.05812,-27.809 v -25.5348 l -7.79375,-0.79849 c -37.03431,-3.79428 -74.54792,-30.31423 -92.17201,-65.16029 -4.40856,-8.71652 -10.71358,-27.72998 -10.71358,-32.30793 0,-4.37738 3.3588,-7.78174 7.67761,-7.78174 4.4038,0 6.34295,2.9007 9.56057,14.30127 9.9926,35.40545 37.35161,62.75223 73.00678,72.97415 14.2472,4.0845 41.54462,4.0845 55.79181,0 35.78901,-10.26029 63.21128,-37.65608 73.04468,-72.97415 3.20569,-11.51369 5.10395,-14.30127 9.73875,-14.30127 4.19737,0 7.46153,3.49877 7.46153,7.99781 0,4.39675 -6.39565,23.55454 -10.71357,32.09186 -12.19508,24.11188 -35.27379,45.89664 -59.33089,56.00436 -11.85197,4.97967 -23.34025,8.18254 -32.84114,9.15593 l -7.79374,0.79849 v 25.75088 c 0,23.36768 -0.21047,25.94135 -2.27419,27.80899 -3.00348,2.71811 -8.02812,2.61559 -10.59074,-0.21607 z"
     id="path8"
     transform="scale(0.06)" />
  <path
     style="fill:#3057ff;stroke-width:2.244;stroke-dasharray:none"
     d="m 249.51965,403.43987 c -19.73858,-4.77823 -38.85243,-20.45155 -47.87748,-39.25947 -7.56091,-15.75669 -7.85998,-18.87145 -7.38482,-76.91157 0.40412,-49.3632 0.54219,-51.96454 3.17306,-59.78192 6.00151,-17.83291 20.08911,-33.94232 36.98593,-42.29403 22.49468,-11.1186 43.40022,-11.10818 66.00575,0.0329 16.51006,8.13693 30.11439,23.47851 36.75809,41.45201 2.79118,7.5511 2.87047,9.02291 3.27304,60.75468 0.34836,44.76885 0.10947,54.32291 -1.5357,61.41673 -5.99251,25.83924 -28.58977,48.5966 -54.26409,54.64858 -9.81048,2.31252 -25.44814,2.28676 -35.13378,-0.0579 z m 31.24417,-14.82811 c 21.18814,-4.99553 37.32604,-20.67066 42.77641,-41.54973 1.82982,-7.00961 2.14675,-14.91351 2.20814,-55.06853 0.0453,-29.61025 -0.43309,-49.31227 -1.29838,-53.47428 -3.59352,-17.28486 -15.70297,-32.55035 -32.11579,-40.48604 -8.40838,-4.0655 -10.69937,-4.60716 -21.37246,-5.05312 -18.1833,-0.75976 -30.7292,3.52462 -42.47082,14.50363 -7.75546,7.25174 -12.15847,13.65942 -15.94309,23.20189 -2.91153,7.34106 -2.96596,8.25291 -3.37143,56.4772 -0.34898,41.50485 -0.10639,50.38994 1.58316,57.98411 4.66715,20.97797 20.73737,37.61702 41.58785,43.05992 10.18468,2.65865 18.36318,2.7752 28.41641,0.40495 z"
     id="path9"
     transform="scale(0.06)" />
  <path
     style="fill:#3057ff;stroke-width:2.544;stroke-dasharray:none"
     d="m 82.323969,176.2786 0.374635,-51.298 3.93536,-8.30668 C 93.394037,102.40488 104.38746,92.413676 119.38445,86.909125 l 8.08332,-2.966933 H 252.7243 c 123.63238,0 125.28744,0.03225 127.64172,2.487176 1.32487,1.381513 11.79498,29.575922 23.55238,63.422992 l 21.16719,60.93581 124.78045,0.6218 c 123.82754,0.61704 124.83429,0.64216 131.82894,3.28983 6.79613,2.57253 17.51084,9.11549 19.07682,11.64931 0.49746,0.80492 -48.60808,1.22498 -142.63827,1.22016 l -143.39692,-0.007 -22.26819,-64.06096 -22.26819,-64.060951 -122.60981,0.334399 -122.60982,0.334402 -6.29685,3.32326 c -7.52535,3.97161 -14.75953,11.6487 -18.40413,19.53089 -2.551225,5.51754 -2.673084,7.73343 -3.034601,55.181 l -0.376642,49.43262 h -7.459521 -7.459522 z"
     id="path10"
     transform="scale(0.06)" />
</svg>
