<?xml version="1.0" encoding="utf-8"?>
<svg viewBox="0 0 48 48" xmlns="http://www.w3.org/2000/svg">
  <defs>
    <style id="style1">.a{fill:none;stroke:#000000;stroke-linecap:round;stroke-linejoin:round;}</style>
  </defs>
  <path class="a" d="M 34.555 36.835 L 5.086 36.835 C 3.236 36.835 1.738 35.335 1.738 33.486 L 1.738 5.019 C 1.738 3.169 3.236 1.669 5.086 1.669 L 22.303 1.669 L 34.555 36.835 Z" id="path1" style="stroke: rgb(35, 98, 223); stroke-width: 3px;" transform="matrix(1, 0, 0, 1, 1.4210854715202004e-14, 0)"/>
  <path class="a" d="M 25.53 10.996 L 42.795 10.996 C 44.616 10.996 46.092 12.489 46.092 14.33 L 46.092 42.678 C 46.092 44.52 44.616 46.014 42.795 46.014 L 25.846 46.014 L 22.696 36.873" id="path2" style="stroke: rgb(35, 98, 223); stroke-width: 3px;" transform="matrix(1, 0, 0, 1, 1.4210854715202004e-14, 0)"/>
  <line class="a" x1="34.555" y1="36.835" x2="25.822" y2="46.014" id="line2" style="stroke: rgb(35, 98, 223); stroke-width: 3px;" transform="matrix(1, 0, 0, 1, 1.4210854715202004e-14, 0)"/>
  <path class="a" d="M 14.527 8.347 C 17.149 8.347 19.274 10.471 19.274 13.092 L 19.274 18.96 C 19.274 21.581 17.149 23.706 14.527 23.706 C 11.906 23.706 9.782 21.581 9.782 18.96 L 9.782 13.092 C 9.782 10.471 11.906 8.347 14.527 8.347 Z" id="path3" style="stroke: rgb(35, 98, 223); stroke-width: 3px;" transform="matrix(1, 0, 0, 1, 1.4210854715202004e-14, 0)"/>
  <path class="a" d="M 6.64 20.667 C 7.821 26.795 15.192 29.347 19.91 25.261 C 21.284 24.07 22.217 22.452 22.562 20.667" id="path4" style="stroke: rgb(35, 98, 223); stroke-width: 3px;" transform="matrix(1, 0, 0, 1, 1.4210854715202004e-14, 0)"/>
  <line class="a" x1="15.264" y1="28.051" x2="15.264" y2="32.049" id="line4" style="stroke: rgb(35, 98, 223); stroke-width: 3px;" transform="matrix(1, 0, 0, 1, 1.4210854715202004e-14, 0)"/>
  <line class="a" x1="28.819" y1="20.372" x2="42.302" y2="20.372" id="line5" style="stroke: rgb(35, 98, 223); stroke-width: 3px;" transform="matrix(1, 0, 0, 1, 1.4210854715202004e-14, 0)"/>
  <line class="a" x1="32.91" y1="32.116" x2="42.302" y2="32.116" id="line6" style="stroke: rgb(35, 98, 223); stroke-width: 3px;" transform="matrix(1, 0, 0, 1, 1.4210854715202004e-14, 0)"/>
  <line class="a" x1="30.931" y1="26.244" x2="42.302" y2="26.244" id="line7" style="stroke: rgb(35, 98, 223); stroke-width: 3px;" transform="matrix(1, 0, 0, 1, 1.4210854715202004e-14, 0)"/>
</svg>