<svg xmlns="http://www.w3.org/2000/svg" width="24" height="24" viewBox="0 0 24 24">
  <path d="M12,2 C6.48,2 2,6.48 2,12 C2,17.52 6.48,22 12,22 C17.52,22 22,17.52 22,12 C22,6.48 17.52,2 12,2 Z" fill="#2196F3" opacity="0.2" />
  <path d="M12,3 C16.97,3 21,7.03 21,12 C21,16.97 16.97,21 12,21 C7.03,21 3,16.97 3,12 C3,7.03 7.03,3 12,3 M12,2 C6.48,2 2,6.48 2,12 C2,17.52 6.48,22 12,22 C17.52,22 22,17.52 22,12 C22,6.48 17.52,2 12,2 Z" fill="#2196F3" />
  <path d="M8,15 L16,15 L16,9 L8,9 L8,15 Z M10,11 L14,11 M10,13 L14,13" fill="none" stroke="#2196F3" stroke-width="1.5" stroke-linecap="round" stroke-linejoin="round" />
  <path d="M12,7 L12,9 M12,15 L12,17" stroke="#2196F3" stroke-width="2" stroke-linecap="round" />
</svg>