<svg xmlns="http://www.w3.org/2000/svg" width="24" height="24" viewBox="0 0 24 24">
  <path d="M12,2 C6.48,2 2,6.48 2,12 C2,17.52 6.48,22 12,22 C17.52,22 22,17.52 22,12 C22,6.48 17.52,2 12,2 Z" fill="#9E9E9E" opacity="0.2" />
  <path d="M12,3 C16.97,3 21,7.03 21,12 C21,16.97 16.97,21 12,21 C7.03,21 3,16.97 3,12 C3,7.03 7.03,3 12,3 M12,2 C6.48,2 2,6.48 2,12 C2,17.52 6.48,22 12,22 C17.52,22 22,17.52 22,12 C22,6.48 17.52,2 12,2 Z" fill="#9E9E9E" />
  <path d="M14,6 L8.5,6 C8.22385763,6 8,6.22385763 8,6.5 L8,17.5 C8,17.7761424 8.22385763,18 8.5,18 L15.5,18 C15.7761424,18 16,17.7761424 16,17.5 L16,8 L14,6 Z" fill="none" stroke="#9E9E9E" stroke-width="1.5" />
  <path d="M14,6 L14,8 L16,8" fill="none" stroke="#9E9E9E" stroke-width="1.5" />
</svg>