<svg xmlns="http://www.w3.org/2000/svg" width="24" height="24" viewBox="0 0 24 24">
  <path d="M12,2 C6.48,2 2,6.48 2,12 C2,17.52 6.48,22 12,22 C17.52,22 22,17.52 22,12 C22,6.48 17.52,2 12,2 Z" fill="#FF9900" opacity="0.2" />
  <path d="M12,3 C16.97,3 21,7.03 21,12 C21,16.97 16.97,21 12,21 C7.03,21 3,16.97 3,12 C3,7.03 7.03,3 12,3 M12,2 C6.48,2 2,6.48 2,12 C2,17.52 6.48,22 12,22 C17.52,22 22,17.52 22,12 C22,6.48 17.52,2 12,2 Z" fill="#FF9900" />
  <path d="M8,16 L16,16 C16.5522847,16 17,15.5522847 17,15 L17,9 C17,8.44771525 16.5522847,8 16,8 L8,8 C7.44771525,8 7,8.44771525 7,9 L7,15 C7,15.5522847 7.44771525,16 8,16 Z" fill="none" stroke="#FF9900" stroke-width="1.5" />
  <path d="M12,12 L14.5,10.5 L14.5,13.5 L12,12 Z" fill="#FF9900" />
</svg>